  0
SECTION
  2
HEADER
  9
$ACADVER
  1
AC1015
  9
$ACADMAINTVER
 70
     6
  9
$DWGCODEPAGE
  3
ANSI_1252
  9
$INSBASE
 10
0.0
 20
0.0
 30
0.0
  9
$EXTMIN
 10
-0.0508
 20
-0.0381
 30
0.0
  9
$EXTMAX
 10
0.0508
 20
0.0381
 30
0.0
  9
$LIMMIN
 10
0.0
 20
0.0
  9
$LIMMAX
 10
420.0
 20
297.0
  9
$ORTHOMODE
 70
     0
  9
$REGENMODE
 70
     1
  9
$FILLMODE
 70
     1
  9
$QTEXTMODE
 70
     0
  9
$MIRRTEXT
 70
     1
  9
$LTSCALE
 40
1.0
  9
$ATTMODE
 70
     1
  9
$TEXTSIZE
 40
0.0035
  9
$TRACEWID
 40
1.0
  9
$TEXTSTYLE
  7
Standard
  9
$CLAYER
  8
0
  9
$CELTYPE
  6
ByLayer
  9
$CECOLOR
 62
   256
  9
$CELTSCALE
 40
1.0
  9
$DISPSILH
 70
     0
  9
$DIMSCALE
 40
1.0
  9
$DIMASZ
 40
0.003302
  9
$DIMEXO
 40
0.0
  9
$DIMDLI
 40
3.75
  9
$DIMRND
 40
0.0
  9
$DIMDLE
 40
0.0
  9
$DIMEXE
 40
0.001
  9
$DIMTP
 40
0.0
  9
$DIMTM
 40
0.0
  9
$DIMTXT
 40
0.0035
  9
$DIMCEN
 40
2.5
  9
$DIMTSZ
 40
0.0
  9
$DIMTOL
 70
     0
  9
$DIMLIM
 70
     0
  9
$DIMTIH
 70
     1
  9
$DIMTOH
 70
     1
  9
$DIMSE1
 70
     0
  9
$DIMSE2
 70
     0
  9
$DIMTAD
 70
     1
  9
$DIMZIN
 70
     1
  9
$DIMBLK
  1

  9
$DIMASO
 70
     1
  9
$DIMSHO
 70
     1
  9
$DIMPOST
  1

  9
$DIMAPOST
  1

  9
$DIMALT
 70
     0
  9
$DIMALTD
 70
     3
  9
$DIMALTF
 40
39.3700787402
  9
$DIMLFAC
 40
1.0
  9
$DIMTOFL
 70
     1
  9
$DIMTVP
 40
0.0
  9
$DIMTIX
 70
     0
  9
$DIMSOXD
 70
     0
  9
$DIMSAH
 70
     0
  9
$DIMBLK1
  1

  9
$DIMBLK2
  1

  9
$DIMSTYLE
  2
ISO-25
  9
$DIMCLRD
 70
     0
  9
$DIMCLRE
 70
     0
  9
$DIMCLRT
 70
     0
  9
$DIMTFAC
 40
1.0
  9
$DIMGAP
 40
0.001524
  9
$DIMJUST
 70
     0
  9
$DIMSD1
 70
     0
  9
$DIMSD2
 70
     0
  9
$DIMTOLJ
 70
     0
  9
$DIMTZIN
 70
     1
  9
$DIMALTZ
 70
     0
  9
$DIMALTTZ
 70
     0
  9
$DIMUPT
 70
     0
  9
$DIMDEC
 70
     2
  9
$DIMTDEC
 70
     2
  9
$DIMALTU
 70
     2
  9
$DIMALTTD
 70
     3
  9
$DIMTXSTY
  7
Standard
  9
$DIMAUNIT
 70
     0
  9
$DIMADEC
 70
     2
  9
$DIMALTRND
 40
0.0
  9
$DIMAZIN
 70
     0
  9
$DIMDSEP
 70
    44
  9
$DIMATFIT
 70
     3
  9
$DIMFRAC
 70
     0
  9
$DIMLDRBLK
  1

  9
$DIMLUNIT
 70
     2
  9
$DIMLWD
 70
    -2
  9
$DIMLWE
 70
    -2
  9
$DIMTMOVE
 70
     0
  9
$LUNITS
 70
     2
  9
$LUPREC
 70
     2
  9
$SKETCHINC
 40
1.0
  9
$FILLETRAD
 40
0.0
  9
$AUNITS
 70
     0
  9
$AUPREC
 70
     2
  9
$MENU
  1
.
  9
$ELEVATION
 40
0.0
  9
$PELEVATION
 40
0.0
  9
$THICKNESS
 40
0.0
  9
$LIMCHECK
 70
     0
  9
$CHAMFERA
 40
0.0
  9
$CHAMFERB
 40
0.0
  9
$CHAMFERC
 40
0.0
  9
$CHAMFERD
 40
0.0
  9
$SKPOLY
 70
     0
  9
$TDCREATE
 40
2460423.821696621
  9
$TDUCREATE
 40
2460424.030029954
  9
$TDUPDATE
 40
2460423.821745753
  9
$TDUUPDATE
 40
2460424.030079086
  9
$TDINDWG
 40
0.0000000116
  9
$TDUSRTIMER
 40
0.0000000116
  9
$USRTIMER
 70
     1
  9
$ANGBASE
 50
0.0
  9
$ANGDIR
 70
     0
  9
$PDMODE
 70
     0
  9
$PDSIZE
 40
-1.0
  9
$PLINEWID
 40
0.0
  9
$SPLFRAME
 70
     0
  9
$SPLINETYPE
 70
     6
  9
$SPLINESEGS
 70
     8
  9
$HANDSEED
  5
13E
  9
$SURFTAB1
 70
     6
  9
$SURFTAB2
 70
     6
  9
$SURFTYPE
 70
     6
  9
$SURFU
 70
     6
  9
$SURFV
 70
     6
  9
$UCSBASE
  2

  9
$UCSNAME
  2

  9
$UCSORG
 10
0.0
 20
0.0
 30
0.0
  9
$UCSXDIR
 10
1.0
 20
0.0
 30
0.0
  9
$UCSYDIR
 10
0.0
 20
1.0
 30
0.0
  9
$UCSORTHOREF
  2

  9
$UCSORTHOVIEW
 70
     0
  9
$UCSORGTOP
 10
0.0
 20
0.0
 30
0.0
  9
$UCSORGBOTTOM
 10
0.0
 20
0.0
 30
0.0
  9
$UCSORGLEFT
 10
0.0
 20
0.0
 30
0.0
  9
$UCSORGRIGHT
 10
0.0
 20
0.0
 30
0.0
  9
$UCSORGFRONT
 10
0.0
 20
0.0
 30
0.0
  9
$UCSORGBACK
 10
0.0
 20
0.0
 30
0.0
  9
$PUCSBASE
  2

  9
$PUCSNAME
  2

  9
$PUCSORG
 10
0.0
 20
0.0
 30
0.0
  9
$PUCSXDIR
 10
1.0
 20
0.0
 30
0.0
  9
$PUCSYDIR
 10
0.0
 20
1.0
 30
0.0
  9
$PUCSORTHOREF
  2

  9
$PUCSORTHOVIEW
 70
     0
  9
$PUCSORGTOP
 10
0.0
 20
0.0
 30
0.0
  9
$PUCSORGBOTTOM
 10
0.0
 20
0.0
 30
0.0
  9
$PUCSORGLEFT
 10
0.0
 20
0.0
 30
0.0
  9
$PUCSORGRIGHT
 10
0.0
 20
0.0
 30
0.0
  9
$PUCSORGFRONT
 10
0.0
 20
0.0
 30
0.0
  9
$PUCSORGBACK
 10
0.0
 20
0.0
 30
0.0
  9
$USERI1
 70
     0
  9
$USERI2
 70
     0
  9
$USERI3
 70
     0
  9
$USERI4
 70
     0
  9
$USERI5
 70
     0
  9
$USERR1
 40
0.0
  9
$USERR2
 40
0.0
  9
$USERR3
 40
0.0
  9
$USERR4
 40
0.0
  9
$USERR5
 40
0.0
  9
$WORLDVIEW
 70
     1
  9
$SHADEDGE
 70
     3
  9
$SHADEDIF
 70
    70
  9
$TILEMODE
 70
     1
  9
$MAXACTVP
 70
    64
  9
$PINSBASE
 10
0.0
 20
0.0
 30
0.0
  9
$PLIMCHECK
 70
     0
  9
$PEXTMIN
 10
1.0000000000E+20
 20
1.0000000000E+20
 30
1.0000000000E+20
  9
$PEXTMAX
 10
-1.0000000000E+20
 20
-1.0000000000E+20
 30
-1.0000000000E+20
  9
$PLIMMIN
 10
0.0
 20
0.0
  9
$PLIMMAX
 10
420.0
 20
297.0
  9
$UNITMODE
 70
     0
  9
$VISRETAIN
 70
     1
  9
$PLINEGEN
 70
     0
  9
$PSLTSCALE
 70
     1
  9
$TREEDEPTH
 70
  3020
  9
$CMLSTYLE
  2
Standard
  9
$CMLJUST
 70
     0
  9
$CMLSCALE
 40
20.0
  9
$PROXYGRAPHICS
 70
     1
  9
$MEASUREMENT
 70
     1
  9
$CELWEIGHT
370
    -1
  9
$ENDCAPS
280
     0
  9
$JOINSTYLE
280
     0
  9
$LWDISPLAY
290
     1
  9
$INSUNITS
 70
     6
  9
$HYPERLINKBASE
  1

  9
$STYLESHEET
  1

  9
$XEDIT
290
     1
  9
$CEPSNTYPE
380
     0
  9
$PSTYLEMODE
290
     1
  9
$FINGERPRINTGUID
  2
{62e6d655-aada-4925-9744-5023b7f43771}
  9
$VERSIONGUID
  2
{FAEB1C32-E019-11D5-929B-00C0DF256EC4}
  9
$EXTNAMES
290
     1
  9
$PSVPSCALE
 40
0.0
  9
$OLESTARTUP
290
     0
  0
ENDSEC
  0
SECTION
  2
CLASSES
  0
CLASS
  1
ACDBDICTIONARYWDFLT
  2
AcDbDictionaryWithDefault
  3
ObjectDBX Classes
 90
        0
280
     0
281
     0
  0
CLASS
  1
VISUALSTYLE
  2
AcDbVisualStyle
  3
ObjectDBX Classes
 90
     4095
280
     0
281
     0
  0
CLASS
  1
MATERIAL
  2
AcDbMaterial
  3
ObjectDBX Classes
 90
     1153
280
     0
281
     0
  0
CLASS
  1
SCALE
  2
AcDbScale
  3
ObjectDBX Classes
 90
     1153
280
     0
281
     0
  0
CLASS
  1
TABLESTYLE
  2
AcDbTableStyle
  3
ObjectDBX Classes
 90
     4095
280
     0
281
     0
  0
CLASS
  1
MLEADERSTYLE
  2
AcDbMLeaderStyle
  3
ACDB_MLEADERSTYLE_CLASS
 90
     4095
280
     0
281
     0
  0
CLASS
  1
SUN
  2
AcDbSun
  3
SCENEOE
 90
     1153
280
     0
281
     0
  0
CLASS
  1
ACDBPLACEHOLDER
  2
AcDbPlaceHolder
  3
ObjectDBX Classes
 90
        0
280
     0
281
     0
  0
CLASS
  1
LAYOUT
  2
AcDbLayout
  3
ObjectDBX Classes
 90
        0
280
     0
281
     0
  0
ENDSEC
  0
SECTION
  2
TABLES
  0
TABLE
  2
VPORT
  5
8
330
0
100
AcDbSymbolTable
 70
     1
  0
VPORT
  5
29
330
8
100
AcDbSymbolTableRecord
100
AcDbViewportTableRecord
  2
*Active
 70
     0
 10
0.0
 20
0.0
 11
1.0
 21
1.0
 12
0.0
 22
0.0
 13
0.0
 23
0.0
 14
10.0
 24
10.0
 15
10.0
 25
10.0
 16
0.0
 26
0.0
 36
1.0
 17
0.0
 27
0.0
 37
0.0
 40
0.077724
 41
1.3333333333
 42
50.0
 43
0.0
 44
0.0
 50
0.0
 51
0.0
 71
     0
 72
   100
 73
     1
 74
     3
 75
     0
 76
     0
 77
     0
 78
     0
281
     0
 65
     1
110
0.0
120
0.0
130
0.0
111
1.0
121
0.0
131
0.0
112
0.0
122
1.0
132
0.0
 79
     0
146
0.0
  0
ENDTAB
  0
TABLE
  2
LTYPE
  5
5
330
0
100
AcDbSymbolTable
 70
     6
  0
LTYPE
  5
14
330
5
100
AcDbSymbolTableRecord
100
AcDbLinetypeTableRecord
  2
ByBlock
 70
     0
  3

 72
    65
 73
     0
 40
0.0
  0
LTYPE
  5
15
330
5
100
AcDbSymbolTableRecord
100
AcDbLinetypeTableRecord
  2
ByLayer
 70
     0
  3

 72
    65
 73
     0
 40
0.0
  0
LTYPE
  5
16
330
5
100
AcDbSymbolTableRecord
100
AcDbLinetypeTableRecord
  2
Continuous
 70
     0
  3
Solid line
 72
    65
 73
     0
 40
0.0
  0
LTYPE
  5
5E
330
5
100
AcDbSymbolTableRecord
100
AcDbLinetypeTableRecord
  2
HIDDEN
 70
     0
  3
Hidden __ __ __ __ __ __ __ __ __ __ __ __ __ __
 72
    65
 73
     2
 40
0.001905
 49
0.00127
 74
     0
 49
-0.000635
 74
     0
  0
LTYPE
  5
5F
330
5
100
AcDbSymbolTableRecord
100
AcDbLinetypeTableRecord
  2
PHANTOM
 70
     0
  3
Phantom ______  __  __  ______  __  __  ______
 72
    65
 73
     6
 40
0.0127
 49
0.00635
 74
     0
 49
-0.00127
 74
     0
 49
0.00127
 74
     0
 49
-0.00127
 74
     0
 49
0.00127
 74
     0
 49
-0.00127
 74
     0
  0
LTYPE
  5
60
330
5
100
AcDbSymbolTableRecord
100
AcDbLinetypeTableRecord
  2
CENTER
 70
     0
  3
Center ____ _ ____ _ ____ _ ____ _ ____ _ ____
 72
    65
 73
     4
 40
0.01016
 49
0.00635
 74
     0
 49
-0.00127
 74
     0
 49
0.00127
 74
     0
 49
-0.00127
 74
     0
  0
LTYPE
  5
61
330
5
100
AcDbSymbolTableRecord
100
AcDbLinetypeTableRecord
  2
CENTERX2
 70
     0
  3
Center (2x) ________  __  ________  __  _____
 72
    65
 73
     4
 40
0.02032
 49
0.0127
 74
     0
 49
-0.00254
 74
     0
 49
0.00254
 74
     0
 49
-0.00254
 74
     0
  0
LTYPE
  5
62
330
5
100
AcDbSymbolTableRecord
100
AcDbLinetypeTableRecord
  2
DOT2
 70
     0
  3
Dot (.5x) ........................................
 72
    65
 73
     2
 40
0.000635
 49
0.0
 74
     0
 49
-0.000635
 74
     0
  0
ENDTAB
  0
TABLE
  2
LAYER
  5
2
330
0
100
AcDbSymbolTable
 70
     1
  0
LAYER
  5
10
330
2
100
AcDbSymbolTableRecord
100
AcDbLayerTableRecord
  2
0
 70
     0
 62
     7
  6
Continuous
370
    -3
390
F
  0
ENDTAB
  0
TABLE
  2
STYLE
  5
3
330
0
100
AcDbSymbolTable
 70
     1
  0
STYLE
  5
11
330
3
100
AcDbSymbolTableRecord
100
AcDbTextStyleTableRecord
  2
Standard
 70
     0
 40
0.0
 41
1.0
 50
0.0
 71
     0
 42
0.0035
  3
txt
  4

  0
ENDTAB
  0
TABLE
  2
VIEW
  5
6
330
0
100
AcDbSymbolTable
 70
     0
  0
ENDTAB
  0
TABLE
  2
UCS
  5
7
330
0
100
AcDbSymbolTable
 70
     0
  0
ENDTAB
  0
TABLE
  2
APPID
  5
9
330
0
100
AcDbSymbolTable
 70
     1
  0
APPID
  5
12
330
9
100
AcDbSymbolTableRecord
100
AcDbRegAppTableRecord
  2
ACAD
 70
     0
  0
ENDTAB
  0
TABLE
  2
DIMSTYLE
  5
A
330
0
100
AcDbSymbolTable
 70
     1
100
AcDbDimStyleTable
  0
DIMSTYLE
105
27
330
A
100
AcDbSymbolTableRecord
100
AcDbDimStyleTableRecord
  2
ISO-25
 70
     0
 41
2.5
 42
0.625
 43
3.75
 44
1.25
 73
     0
 74
     0
 77
     1
 78
     8
140
2.5
141
2.5
143
0.0393700787
147
0.625
171
     3
172
     1
178
     0
271
     2
272
     2
274
     3
278
    44
283
     0
284
     8
340
11
  0
ENDTAB
  0
TABLE
  2
BLOCK_RECORD
  5
1
330
0
100
AcDbSymbolTable
 70
     1
  0
BLOCK_RECORD
  5
1F
330
1
100
AcDbSymbolTableRecord
100
AcDbBlockTableRecord
  2
*Model_Space
340
22
  0
BLOCK_RECORD
  5
1B
330
1
100
AcDbSymbolTableRecord
100
AcDbBlockTableRecord
  2
*Paper_Space
340
1E
  0
BLOCK_RECORD
  5
23
330
1
100
AcDbSymbolTableRecord
100
AcDbBlockTableRecord
  2
*Paper_Space0
340
26
  0
ENDTAB
  0
ENDSEC
  0
SECTION
  2
BLOCKS
  0
BLOCK
  5
20
330
1F
100
AcDbEntity
  8
0
100
AcDbBlockBegin
  2
*Model_Space
 70
     0
 10
0.0
 20
0.0
 30
0.0
  3
*Model_Space
  1

  0
ENDBLK
  5
21
330
1F
100
AcDbEntity
  8
0
100
AcDbBlockEnd
  0
BLOCK
  5
1C
330
1B
100
AcDbEntity
 67
     1
  8
0
100
AcDbBlockBegin
  2
*Paper_Space
 70
     0
 10
0.0
 20
0.0
 30
0.0
  3
*Paper_Space
  1

  0
ENDBLK
  5
1D
330
1B
100
AcDbEntity
 67
     1
  8
0
100
AcDbBlockEnd
  0
BLOCK
  5
24
330
23
100
AcDbEntity
  8
0
100
AcDbBlockBegin
  2
*Paper_Space0
 70
     0
 10
0.0
 20
0.0
 30
0.0
  3
*Paper_Space0
  1

  0
ENDBLK
  5
25
330
23
100
AcDbEntity
  8
0
100
AcDbBlockEnd
  0
ENDSEC
  0
SECTION
  2
ENTITIES
  0
SPLINE
  5
70
330
1F
100
AcDbEntity
  8
0
  6
Continuous
 62
     7
370
    25
100
AcDbSpline
210
0.0
220
0.0
230
1.0
 70
     8
 71
     3
 72
    15
 73
    11
 74
     0
 42
0.00000001
 43
0.00000001
 40
0.0
 40
0.0
 40
0.0
 40
0.0
 40
0.1259192724342298
 40
0.2471296052138269
 40
0.3709655724097009
 40
0.5002824590438306
 40
0.6277912382302498
 40
0.7505153254008221
 40
0.8717256581804206
 40
1.0
 40
1.0
 40
1.0
 40
1.0
 10
-0.0402764180946745
 20
0.020433792204139
 30
0.0
 10
-0.0403070109367446
 20
0.0204322517215072
 30
0.0
 10
-0.0403670525557676
 20
0.0204292283648973
 30
0.0
 10
-0.0404535651747322
 20
0.0204016899599117
 30
0.0
 10
-0.0405339525976428
 20
0.0203583512057392
 30
0.0
 10
-0.0406042771181358
 20
0.0202980223479192
 30
0.0
 10
-0.0406661336233904
 20
0.0202289320464351
 30
0.0
 10
-0.0407065214389344
 20
0.0201477495235101
 30
0.0
 10
-0.0407348154413156
 20
0.0200613057119018
 30
0.0
 10
-0.0407376210035378
 20
0.0200006258907898
 30
0.0
 10
-0.0407390635035554
 20
0.0199694269238497
 30
0.0
  0
SPLINE
  5
74
330
1F
100
AcDbEntity
  8
0
  6
Continuous
 62
     7
370
    25
100
AcDbSpline
210
0.0
220
0.0
230
1.0
 70
     8
 71
     3
 72
    19
 73
    15
 74
     0
 42
0.00000001
 43
0.00000001
 40
0.0
 40
0.0
 40
0.0
 40
0.0
 40
0.0873862153047322
 40
0.1715805028049508
 40
0.254337881036757
 40
0.337784065069857
 40
0.420676886341194
 40
0.5023743275283671
 40
0.5845737061174896
 40
0.6674665273888296
 40
0.750237807414489
 40
0.8320302558874318
 40
0.9148848976933741
 40
0.9999999999999999
 40
0.9999999999999999
 40
0.9999999999999999
 40
0.9999999999999999
 10
-0.0348192661155706
 20
0.0158331361864577
 30
0.0
 10
-0.0348215213086665
 20
0.0157670496328522
 30
0.0
 10
-0.0348259493201551
 20
0.015637290447645
 30
0.0
 10
-0.0348626496337603
 20
0.0154476566362888
 30
0.0
 10
-0.0349257059416373
 20
0.0152686253426926
 30
0.0
 10
-0.0350114380589248
 20
0.0151003198886473
 30
0.0
 10
-0.035118745742574
 20
0.0149460315058
 30
0.0
 10
-0.0352414785142622
 20
0.014805018410912
 30
0.0
 10
-0.0353814550964043
 20
0.0146808985658922
 30
0.0
 10
-0.0355361042419065
 20
0.0145744967196668
 30
0.0
 10
-0.0357023857712848
 20
0.0144872747808389
 30
0.0
 10
-0.0358802684473316
 20
0.0144280383964741
 30
0.0
 10
-0.0360655036227466
 20
0.0143875929654019
 30
0.0
 10
-0.0361926499239039
 20
0.0143835920809632
 30
0.0
 10
-0.0362570786130591
 20
0.0143815647177014
 30
0.0
  0
SPLINE
  5
76
330
1F
100
AcDbEntity
  8
0
  6
Continuous
 62
     7
370
    25
100
AcDbSpline
210
0.0
220
0.0
230
1.0
 70
     8
 71
     3
 72
    19
 73
    15
 74
     0
 42
0.00000001
 43
0.00000001
 40
0.0
 40
0.0
 40
0.0
 40
0.0
 40
0.0855903637063315
 40
0.1687573946523363
 40
0.2512572526564284
 40
0.334490706765586
 40
0.4178463807762784
 40
0.5000000000000003
 40
0.5821536192237232
 40
0.6655092932344137
 40
0.7487427473435712
 40
0.8312426053476653
 40
0.9144096362936686
 40
1.0
 40
1.0
 40
1.0
 40
1.0
 10
-0.0362570786130591
 20
0.0214072394213382
 30
0.0
 10
-0.0361927063188016
 20
0.0214049695611356
 30
0.0
 10
-0.0360657843126753
 20
0.0214004941076217
 30
0.0
 10
-0.0358796579521013
 20
0.021363562077108
 30
0.0
 10
-0.0357028072777943
 20
0.0213008590285622
 30
0.0
 10
-0.0355359600749288
 20
0.0212145979257836
 30
0.0
 10
-0.0353820876574625
 20
0.0211077242515994
 30
0.0
 10
-0.0352409173905193
 20
0.0209855881463895
 30
0.0
 10
-0.0351187812853094
 20
0.0208444178794463
 30
0.0
 10
-0.0350119076111252
 20
0.02069054546198
 30
0.0
 10
-0.0349256465083466
 20
0.0205236982591145
 30
0.0
 10
-0.0348629434598008
 20
0.0203468475848075
 30
0.0
 10
-0.0348260114292871
 20
0.0201607212242335
 30
0.0
 10
-0.0348215359757732
 20
0.0200337992181072
 30
0.0
 10
-0.0348192661155706
 20
0.0199694269238497
 30
0.0
  0
SPLINE
  5
78
330
1F
100
AcDbEntity
  8
0
  6
Continuous
 62
     7
370
    25
100
AcDbSpline
210
0.0
220
0.0
230
1.0
 70
     8
 71
     3
 72
    19
 73
    15
 74
     0
 42
0.00000001
 43
0.00000001
 40
0.0
 40
0.0
 40
0.0
 40
0.0
 40
0.0856014179595295
 40
0.1689294599980256
 40
0.2511892397306844
 40
0.3344334436910684
 40
0.4177998833380553
 40
0.4999641129490777
 40
0.582128342560099
 40
0.6654947822070864
 40
0.7487389861674704
 40
0.8319692089043818
 40
0.9143985820404706
 40
1.0
 40
1.0
 40
1.0
 40
1.0
 10
-0.041714230592163
 20
0.0199694269238497
 30
0.0
 10
-0.0417122026547424
 20
0.0200338551096484
 30
0.0
 10
-0.0417082006372346
 20
0.0201610004174606
 30
0.0
 10
-0.0416677634959998
 20
0.020346242860454
 30
0.0
 10
-0.0416084960528382
 20
0.0205240983077111
 30
0.0
 10
-0.041521391290182
 20
0.0206904825637132
 30
0.0
 10
-0.0414147679154257
 20
0.0208444354261506
 30
0.0
 10
-0.0412925642062769
 20
0.0209855799791456
 30
0.0
 10
-0.0411514174432195
 20
0.0211077396128736
 30
0.0
 10
-0.0409975181322227
 20
0.0212145439132292
 30
0.0
 10
-0.0408302727865846
 20
0.0213013082600032
 30
0.0
 10
-0.0406530911216822
 20
0.0213629590282268
 30
0.0
 10
-0.0404671954455656
 20
0.0214007120497107
 30
0.0
 10
-0.0403408058623467
 20
0.0214050364193262
 30
0.0
 10
-0.0402764180946745
 20
0.0214072394213382
 30
0.0
  0
SPLINE
  5
83
330
1F
100
AcDbEntity
  8
0
  6
Continuous
 62
     7
370
    25
100
AcDbSpline
210
0.0
220
0.0
230
1.0
 70
     8
 71
     3
 72
    19
 73
    15
 74
     0
 42
0.00000001
 43
0.00000001
 40
0.0
 40
0.0
 40
0.0
 40
0.0
 40
0.0859768991843122
 40
0.1687678397187096
 40
0.2518701585111989
 40
0.3351312548328364
 40
0.4180036912519061
 40
0.4994471854350937
 40
0.5819718194214528
 40
0.6648442558405242
 40
0.7481053521621613
 40
0.8304804784284653
 40
0.9140231008156903
 40
1.0
 40
1.0
 40
1.0
 40
1.0
 10
-0.033154430592163
 20
-0.0081521904761904
 30
0.0
 10
-0.0331565429731145
 20
-0.0082166089493053
 30
0.0
 10
-0.0331606894586617
 20
-0.0083430588055891
 30
0.0
 10
-0.033199666594724
 20
-0.0085281515801289
 30
0.0
 10
-0.0332561246015287
 20
-0.0087064225352571
 30
0.0
 10
-0.0333424650458752
 20
-0.0088725052175113
 30
0.0
 10
-0.0334444676197828
 20
-0.0090275891306647
 30
0.0
 10
-0.0335666730777452
 20
-0.0091668621812214
 30
0.0
 10
-0.0337058525612787
 20
-0.0092891884188317
 30
0.0
 10
-0.0338615935474305
 20
-0.0093916997515306
 30
0.0
 10
-0.0340272649275078
 20
-0.0094775488264201
 30
0.0
 10
-0.0342052282617087
 20
-0.0095350330800747
 30
0.0
 10
-0.034390536388301
 20
-0.0095732104422586
 30
0.0
 10
-0.0345175202135332
 20
-0.0095775054191476
 30
0.0
 10
-0.0345819238612005
 20
-0.009579683745228
 30
0.0
  0
SPLINE
  5
85
330
1F
100
AcDbEntity
  8
0
  6
Continuous
 62
     7
370
    25
100
AcDbSpline
210
0.0
220
0.0
230
1.0
 70
     8
 71
     3
 72
    19
 73
    15
 74
     0
 42
0.00000001
 43
0.00000001
 40
0.0
 40
0.0
 40
0.0
 40
0.0
 40
0.0860180594884
 40
0.1696006768018735
 40
0.2520152390710895
 40
0.3353161955420924
 40
0.4182283060447383
 40
0.5002892097757077
 40
0.5817716939552608
 40
0.6646838044579049
 40
0.7479847609289085
 40
0.8303993231981254
 40
0.9139819405115976
 40
1.0
 40
1.0
 40
1.0
 40
1.0
 10
-0.0345819238612005
 20
-0.001019883745228
 30
0.0
 10
-0.0345175207296269
 20
-0.0010220626610387
 30
0.0
 10
-0.0343905379219697
 20
-0.001026358800691
 30
0.0
 10
-0.034205222363568
 20
-0.0010645276706903
 30
0.0
 10
-0.0340272868201189
 20
-0.0011220436802986
 30
0.0
 10
-0.0338615109541753
 20
-0.0012077733612126
 30
0.0
 10
-0.0337064728228551
 20
-0.0013105204778997
 30
0.0
 10
-0.0335661020302628
 20
-0.0014309031585682
 30
0.0
 10
-0.0334445676300933
 20
-0.0015703619412864
 30
0.0
 10
-0.0333423908596591
 20
-0.0017252999728773
 30
0.0
 10
-0.033256571799965
 20
-0.0018910053278153
 30
0.0
 10
-0.0331990795629834
 20
-0.0020689596255125
 30
0.0
 10
-0.0331609043357026
 20
-0.0022542701686488
 30
0.0
 10
-0.0331566090664994
 20
-0.002381253663004
 30
0.0
 10
-0.033154430592163
 20
-0.0024456571428571
 30
0.0
  0
SPLINE
  5
89
330
1F
100
AcDbEntity
  8
0
  6
Continuous
 62
     7
370
    25
100
AcDbSpline
210
0.0
220
0.0
230
1.0
 70
     8
 71
     3
 72
    15
 73
    11
 74
     0
 42
0.00000001
 43
0.00000001
 40
0.0
 40
0.0
 40
0.0
 40
0.0
 40
0.1283637121560246
 40
0.2496584936887137
 40
0.3735807389499849
 40
0.5011783550958085
 40
0.6287759712416218
 40
0.7526982165028907
 40
0.8739929980355872
 40
1.0
 40
1.0
 40
1.0
 40
1.0
 10
-0.0357944332041782
 20
-0.0241813920032148
 30
0.0
 10
-0.0357959158471146
 20
-0.024150213487755
 30
0.0
 10
-0.0357987994845224
 20
-0.0240895734433499
 30
0.0
 10
-0.0358266131636285
 20
-0.0240025836331483
 30
0.0
 10
-0.0358693643210008
 20
-0.0239222954854802
 30
0.0
 10
-0.0359307495104096
 20
-0.0238533429379946
 30
0.0
 10
-0.0359997017791204
 20
-0.0237919580115327
 30
0.0
 10
-0.036079990748757
 20
-0.0237492061086709
 30
0.0
 10
-0.0361664288131406
 20
-0.0237215705799806
 30
0.0
 10
-0.0362264805935073
 20
-0.023718560460751
 30
0.0
 10
-0.0362570786130591
 20
-0.0237170267229254
 30
0.0
  0
SPLINE
  5
8D
330
1F
100
AcDbEntity
  8
0
  6
Continuous
 62
     7
370
    25
100
AcDbSpline
210
0.0
220
0.0
230
1.0
 70
     8
 71
     3
 72
    19
 73
    15
 74
     0
 42
0.00000001
 43
0.00000001
 40
0.0
 40
0.0
 40
0.0
 40
0.0
 40
0.0855775056506164
 40
0.1688822704358882
 40
0.2513697346642704
 40
0.3345906847911577
 40
0.4179338364587486
 40
0.5000751139214656
 40
0.5822163913841828
 40
0.6655595430517707
 40
0.7487804931786592
 40
0.8312679574070421
 40
0.9144224943493836
 40
1.0
 40
1.0
 40
1.0
 40
1.0
 10
-0.0362570786130591
 20
-0.0227418596343178
 30
0.0
 10
-0.0361926673437115
 20
-0.0227439361387755
 30
0.0
 10
-0.0360655554195398
 20
-0.0227480340005291
 30
0.0
 10
-0.0358798835828286
 20
-0.0227878095833927
 30
0.0
 10
-0.0357027752447367
 20
-0.0228498007527346
 30
0.0
 10
-0.0355359687084879
 20
-0.0229362638942948
 30
0.0
 10
-0.0353820853798821
 20
-0.0230430833600518
 30
0.0
 10
-0.035240917996754
 20
-0.0231652337925539
 30
0.0
 10
-0.0351187811202104
 20
-0.0233064002273777
 30
0.0
 10
-0.035011907655573
 20
-0.0234602736859088
 30
0.0
 10
-0.0349256464965691
 20
-0.023627120609437
 30
0.0
 10
-0.034862943462955
 20
-0.0238039713579277
 30
0.0
 10
-0.034826011428469
 20
-0.0239900976987663
 30
0.0
 10
-0.0348215359754979
 20
-0.0241170197075895
 30
0.0
 10
-0.0348192661155706
 20
-0.0241813920032148
 30
0.0
  0
SPLINE
  5
92
330
1F
100
AcDbEntity
  8
0
  6
Continuous
 62
     7
370
    25
100
AcDbSpline
210
0.0
220
0.0
230
1.0
 70
     8
 71
     3
 72
    15
 73
    11
 74
     0
 42
0.00000001
 43
0.00000001
 40
0.0
 40
0.0
 40
0.0
 40
0.0
 40
0.1259192724342307
 40
0.2471296052138282
 40
0.3709655724097026
 40
0.5002824590438297
 40
0.6277912382302531
 40
0.7505153254008257
 40
0.8717256581804199
 40
1.0
 40
1.0
 40
1.0
 40
1.0
 10
-0.0402764180946745
 20
-0.0297830131806309
 30
0.0
 10
-0.0403070109367446
 20
-0.0297845536632627
 30
0.0
 10
-0.0403670525557676
 20
-0.0297875770198726
 30
0.0
 10
-0.0404535651747323
 20
-0.0298151154248583
 30
0.0
 10
-0.0405339525976428
 20
-0.0298584541790307
 30
0.0
 10
-0.0406042771181358
 20
-0.0299187830368508
 30
0.0
 10
-0.0406661336233904
 20
-0.0299878733383348
 30
0.0
 10
-0.0407065214389344
 20
-0.0300690558612598
 30
0.0
 10
-0.0407348154413156
 20
-0.0301554996728681
 30
0.0
 10
-0.0407376210035378
 20
-0.0302161794939801
 30
0.0
 10
-0.0407390635035554
 20
-0.0302473784609202
 30
0.0
  0
SPLINE
  5
9A
330
1F
100
AcDbEntity
  8
0
  6
Continuous
 62
     7
370
    25
100
AcDbSpline
210
0.0
220
0.0
230
1.0
 70
     8
 71
     3
 72
    19
 73
    15
 74
     0
 42
0.00000001
 43
0.00000001
 40
0.0
 40
0.0
 40
0.0
 40
0.0
 40
0.0876301460166426
 40
0.1722066421455921
 40
0.2549471936165202
 40
0.3386263101207925
 40
0.4217505192012307
 40
0.5031055889028586
 40
0.5850310811038023
 40
0.6673018506372491
 40
0.7499584583414146
 40
0.8324574412661938
 40
0.9146473065878725
 40
1.0
 40
1.0
 40
1.0
 40
1.0
 10
-0.041714230592163
 20
-0.0302473784609202
 30
0.0
 10
-0.0417122222000264
 20
-0.0301812353943897
 30
0.0
 10
-0.0417082754022442
 20
-0.0300512541504207
 30
0.0
 10
-0.0416680487073683
 20
-0.0298625023845808
 30
0.0
 10
-0.0416084566069444
 20
-0.0296824535838978
 30
0.0
 10
-0.0415217864442091
 20
-0.0295146911782066
 30
0.0
 10
-0.0414153300219141
 20
-0.0293603629857936
 30
0.0
 10
-0.0412918072910902
 20
-0.0292210965012239
 30
0.0
 10
-0.0411525329496396
 20
-0.0290982809024674
 30
0.0
 10
-0.040996722321147
 20
-0.0289958934036373
 30
0.0
 10
-0.0408306529698947
 20
-0.028909536657704
 30
0.0
 10
-0.0406523784523248
 20
-0.0288530830071701
 30
0.0
 10
-0.0404672866187402
 20
-0.0288141047204769
 30
0.0
 10
-0.0403408366334899
 20
-0.0288099583926341
 30
0.0
 10
-0.0402764180946745
 20
-0.0288078460920233
 30
0.0
  0
CIRCLE
  5
A5
330
1F
100
AcDbEntity
  8
0
  6
Continuous
 62
     7
370
    25
100
AcDbCircle
 10
0.0208
 20
0.0
 30
0.0
 40
0.002
  0
CIRCLE
  5
A6
330
1F
100
AcDbEntity
  8
0
  6
Continuous
 62
     7
370
    25
100
AcDbCircle
 10
0.0358
 20
0.0
 30
0.0
 40
0.002
  0
CIRCLE
  5
A7
330
1F
100
AcDbEntity
  8
0
  6
Continuous
 62
     7
370
    25
100
AcDbCircle
 10
-0.0031343705
 20
0.0292184706
 30
0.0
 40
0.00125
  0
CIRCLE
  5
A8
330
1F
100
AcDbEntity
  8
0
  6
Continuous
 62
     7
370
    25
100
AcDbCircle
 10
-0.0261343705
 20
-0.0287815294
 30
0.0
 40
0.00125
  0
CIRCLE
  5
A9
330
1F
100
AcDbEntity
  8
0
  6
Continuous
 62
     7
370
    25
100
AcDbCircle
 10
-0.0261343705
 20
0.0292184706
 30
0.0
 40
0.00125
  0
CIRCLE
  5
AA
330
1F
100
AcDbEntity
  8
0
  6
Continuous
 62
     7
370
    25
100
AcDbCircle
 10
-0.0031343705
 20
-0.0278180503
 30
0.0
 40
0.00125
  0
SPLINE
  5
AC
330
1F
100
AcDbEntity
  8
0
  6
Continuous
 62
     7
370
    25
100
AcDbSpline
210
0.0
220
0.0
230
1.0
 70
     8
 71
     3
 72
    15
 73
    11
 74
     0
 42
0.00000001
 43
0.00000001
 40
0.0
 40
0.0
 40
0.0
 40
0.0
 40
0.1259192724342304
 40
0.2471296052138278
 40
0.370965572409702
 40
0.5002824590438321
 40
0.6277912382302534
 40
0.7505153254008259
 40
0.8717256581804201
 40
1.0
 40
1.0
 40
1.0
 40
1.0
 10
-0.0402764180946745
 20
-0.0154496048623669
 30
0.0
 10
-0.0403070109367446
 20
-0.0154511453449987
 30
0.0
 10
-0.0403670525557676
 20
-0.0154541687016086
 30
0.0
 10
-0.0404535651747322
 20
-0.0154817071065942
 30
0.0
 10
-0.0405339525976428
 20
-0.0155250458607667
 30
0.0
 10
-0.0406042771181358
 20
-0.0155853747185867
 30
0.0
 10
-0.0406661336233904
 20
-0.0156544650200708
 30
0.0
 10
-0.0407065214389344
 20
-0.0157356475429958
 30
0.0
 10
-0.0407348154413156
 20
-0.0158220913546041
 30
0.0
 10
-0.0407376210035378
 20
-0.0158827711757161
 30
0.0
 10
-0.0407390635035554
 20
-0.0159139701426562
 30
0.0
  0
SPLINE
  5
B0
330
1F
100
AcDbEntity
  8
0
  6
Continuous
 62
     7
370
    25
100
AcDbSpline
210
0.0
220
0.0
230
1.0
 70
     8
 71
     3
 72
    19
 73
    15
 74
     0
 42
0.00000001
 43
0.00000001
 40
0.0
 40
0.0
 40
0.0
 40
0.0
 40
0.0873862153047337
 40
0.1715805028049523
 40
0.2543378810367576
 40
0.3377840650698583
 40
0.4206768863411953
 40
0.5023743275283672
 40
0.5845737061174906
 40
0.6674665273888297
 40
0.7502378074144891
 40
0.8320302558874321
 40
0.9148848976933742
 40
1.0
 40
1.0
 40
1.0
 40
1.0
 10
-0.0348192661155706
 20
-0.0200502608800482
 30
0.0
 10
-0.0348215213086665
 20
-0.0201163474336537
 30
0.0
 10
-0.0348259493201551
 20
-0.0202461066188609
 30
0.0
 10
-0.0348626496337603
 20
-0.0204357404302172
 30
0.0
 10
-0.0349257059416373
 20
-0.0206147717238134
 30
0.0
 10
-0.0350114380589248
 20
-0.0207830771778586
 30
0.0
 10
-0.035118745742574
 20
-0.0209373655607059
 30
0.0
 10
-0.0352414785142622
 20
-0.0210783786555939
 30
0.0
 10
-0.0353814550964043
 20
-0.0212024985006137
 30
0.0
 10
-0.0355361042419065
 20
-0.0213089003468391
 30
0.0
 10
-0.0357023857712848
 20
-0.021396122285667
 30
0.0
 10
-0.0358802684473316
 20
-0.0214553586700318
 30
0.0
 10
-0.0360655036227466
 20
-0.0214958041011041
 30
0.0
 10
-0.0361926499239039
 20
-0.0214998049855427
 30
0.0
 10
-0.0362570786130591
 20
-0.0215018323488045
 30
0.0
  0
SPLINE
  5
B2
330
1F
100
AcDbEntity
  8
0
  6
Continuous
 62
     7
370
    25
100
AcDbSpline
210
0.0
220
0.0
230
1.0
 70
     8
 71
     3
 72
    19
 73
    15
 74
     0
 42
0.00000001
 43
0.00000001
 40
0.0
 40
0.0
 40
0.0
 40
0.0
 40
0.0855903637063315
 40
0.1687573946523365
 40
0.2512572526564286
 40
0.3344907067655863
 40
0.4178463807762793
 40
0.5000000000000012
 40
0.5821536192237237
 40
0.6655092932344141
 40
0.7487427473435725
 40
0.8312426053476658
 40
0.91440963629367
 40
1.0
 40
1.0
 40
1.0
 40
1.0
 10
-0.0362570786130591
 20
-0.0144761576451678
 30
0.0
 10
-0.0361927063188016
 20
-0.0144784275053703
 30
0.0
 10
-0.0360657843126753
 20
-0.0144829029588843
 30
0.0
 10
-0.0358796579521013
 20
-0.0145198349893979
 30
0.0
 10
-0.0357028072777942
 20
-0.0145825380379438
 30
0.0
 10
-0.0355359600749288
 20
-0.0146687991407223
 30
0.0
 10
-0.0353820876574625
 20
-0.0147756728149066
 30
0.0
 10
-0.0352409173905193
 20
-0.0148978089201164
 30
0.0
 10
-0.0351187812853094
 20
-0.0150389791870596
 30
0.0
 10
-0.0350119076111252
 20
-0.015192851604526
 30
0.0
 10
-0.0349256465083466
 20
-0.0153596988073914
 30
0.0
 10
-0.0348629434598008
 20
-0.0155365494816985
 30
0.0
 10
-0.0348260114292871
 20
-0.0157226758422724
 30
0.0
 10
-0.0348215359757732
 20
-0.0158495978483987
 30
0.0
 10
-0.0348192661155706
 20
-0.0159139701426562
 30
0.0
  0
SPLINE
  5
B4
330
1F
100
AcDbEntity
  8
0
  6
Continuous
 62
     7
370
    25
100
AcDbSpline
210
0.0
220
0.0
230
1.0
 70
     8
 71
     3
 72
    19
 73
    15
 74
     0
 42
0.00000001
 43
0.00000001
 40
0.0
 40
0.0
 40
0.0
 40
0.0
 40
0.085601417959528
 40
0.168929459998025
 40
0.2511892397306831
 40
0.3344334436910679
 40
0.4177998833380549
 40
0.4999641129490768
 40
0.5821283425600982
 40
0.6654947822070859
 40
0.74873898616747
 40
0.8319692089043815
 40
0.9143985820404704
 40
0.9999999999999999
 40
0.9999999999999999
 40
0.9999999999999999
 40
0.9999999999999999
 10
-0.041714230592163
 20
-0.0159139701426562
 30
0.0
 10
-0.0417122026547424
 20
-0.0158495419568575
 30
0.0
 10
-0.0417082006372347
 20
-0.0157223966490453
 30
0.0
 10
-0.0416677634959998
 20
-0.0155371542060519
 30
0.0
 10
-0.0416084960528382
 20
-0.0153592987587949
 30
0.0
 10
-0.041521391290182
 20
-0.0151929145027927
 30
0.0
 10
-0.0414147679154257
 20
-0.0150389616403553
 30
0.0
 10
-0.0412925642062769
 20
-0.0148978170873604
 30
0.0
 10
-0.0411514174432195
 20
-0.0147756574536323
 30
0.0
 10
-0.0409975181322227
 20
-0.0146688531532767
 30
0.0
 10
-0.0408302727865846
 20
-0.0145820888065027
 30
0.0
 10
-0.0406530911216822
 20
-0.0145204380382791
 30
0.0
 10
-0.0404671954455656
 20
-0.0144826850167952
 30
0.0
 10
-0.0403408058623467
 20
-0.0144783606471798
 30
0.0
 10
-0.0402764180946745
 20
-0.0144761576451678
 30
0.0
  0
SPLINE
  5
B8
330
1F
100
AcDbEntity
  8
0
  6
Continuous
 62
     7
370
    25
100
AcDbSpline
210
0.0
220
0.0
230
1.0
 70
     8
 71
     3
 72
    15
 73
    11
 74
     0
 42
0.00000001
 43
0.00000001
 40
0.0
 40
0.0
 40
0.0
 40
0.0
 40
0.1259192724342303
 40
0.2471296052138276
 40
0.3709655724097017
 40
0.5002824590438302
 40
0.6277912382302533
 40
0.7505153254008237
 40
0.8717256581804201
 40
1.0
 40
1.0
 40
1.0
 40
1.0
 10
-0.0402764180946745
 20
-0.0118292755475186
 30
0.0
 10
-0.0403070109367446
 20
-0.0118308160301504
 30
0.0
 10
-0.0403670525557676
 20
-0.0118338393867603
 30
0.0
 10
-0.0404535651747322
 20
-0.0118613777917459
 30
0.0
 10
-0.0405339525976428
 20
-0.0119047165459184
 30
0.0
 10
-0.0406042771181358
 20
-0.0119650454037384
 30
0.0
 10
-0.0406661336233904
 20
-0.0120341357052225
 30
0.0
 10
-0.0407065214389344
 20
-0.0121153182281475
 30
0.0
 10
-0.0407348154413156
 20
-0.0122017620397558
 30
0.0
 10
-0.0407376210035378
 20
-0.0122624418608678
 30
0.0
 10
-0.0407390635035554
 20
-0.0122936408278079
 30
0.0
  0
SPLINE
  5
BC
330
1F
100
AcDbEntity
  8
0
  6
Continuous
 62
     7
370
    25
100
AcDbSpline
210
0.0
220
0.0
230
1.0
 70
     8
 71
     3
 72
    19
 73
    15
 74
     0
 42
0.00000001
 43
0.00000001
 40
0.0
 40
0.0
 40
0.0
 40
0.0
 40
0.0855884400416576
 40
0.1689038488258023
 40
0.2511511572619461
 40
0.3343827406785588
 40
0.4177365412497835
 40
0.4998883140505188
 40
0.5820400868512524
 40
0.6653938874224783
 40
0.7486254708390907
 40
0.8318430751519058
 40
0.9144115599583417
 40
1.0
 40
1.0
 40
1.0
 40
1.0
 10
-0.041714230592163
 20
-0.0122936408278079
 30
0.0
 10
-0.0417122026550234
 20
-0.0122292126406258
 30
0.0
 10
-0.0417082006380701
 20
-0.0121020673300836
 30
0.0
 10
-0.0416677634927784
 20
-0.0119168249070635
 30
0.0
 10
-0.0416084960648163
 20
-0.0117389693849746
 30
0.0
 10
-0.0415213912448165
 20
-0.0115725854112921
 30
0.0
 10
-0.0414147680839183
 20
-0.0114186314959682
 30
0.0
 10
-0.0412925635875851
 20
-0.0112774908185142
 30
0.0
 10
-0.0411514197675989
 20
-0.0111553166951772
 30
0.0
 10
-0.0409975093212644
 20
-0.01104856721738
 30
0.0
 10
-0.0408303055977452
 20
-0.010961597952613
 30
0.0
 10
-0.0406528611548342
 20
-0.0109006719465785
 30
0.0
 10
-0.0404674273169349
 20
-0.0108600607524996
 30
0.0
 10
-0.0403408456020457
 20
-0.0108561161705519
 30
0.0
 10
-0.0402764180946745
 20
-0.010854108458911
 30
0.0
  0
SPLINE
  5
C2
330
1F
100
AcDbEntity
  8
0
  6
Continuous
 62
     7
370
    25
100
AcDbSpline
210
0.0
220
0.0
230
1.0
 70
     8
 71
     3
 72
    19
 73
    15
 74
     0
 42
0.00000001
 43
0.00000001
 40
0.0
 40
0.0
 40
0.0
 40
0.0
 40
0.0851493361370169
 40
0.1678878263931953
 40
0.2499625814970453
 40
0.3327671526530079
 40
0.4156933139393054
 40
0.4974236143520341
 40
0.5791539147647634
 40
0.6620800760510583
 40
0.7455598226651053
 40
0.8283504864358255
 40
0.9125786374089189
 40
1.0
 40
1.0
 40
1.0
 40
1.0
 10
-0.0362570786130591
 20
0.0134855117138839
 30
0.0
 10
-0.0361927063252223
 20
0.0134832418503015
 30
0.0
 10
-0.0360657843317555
 20
0.0134787663901235
 30
0.0
 10
-0.0358796578785406
 20
0.0134418344083761
 30
0.0
 10
-0.0357028075524638
 20
0.0133791311765218
 30
0.0
 10
-0.0355359590383429
 20
0.0132928707639884
 30
0.0
 10
-0.0353820915078075
 20
0.0131859945173226
 30
0.0
 10
-0.0352409032522609
 20
0.0130638678813176
 30
0.0
 10
-0.0351188344017342
 20
0.0129226622114941
 30
0.0
 10
-0.0350114139746006
 20
0.012768504281825
 30
0.0
 10
-0.0349257123472339
 20
0.0126001635485165
 30
0.0
 10
-0.0348626479006596
 20
0.0124211416720404
 30
0.0
 10
-0.0348259497758736
 20
0.0122315053280463
 30
0.0
 10
-0.034821521462445
 20
0.0121017464922077
 30
0.0
 10
-0.0348192661155706
 20
0.0120356601165361
 30
0.0
  0
SPLINE
  5
C4
330
1F
100
AcDbEntity
  8
0
  6
Continuous
 62
     7
370
    25
100
AcDbSpline
210
0.0
220
0.0
230
1.0
 70
     8
 71
     3
 72
    19
 73
    15
 74
     0
 42
0.00000001
 43
0.00000001
 40
0.0
 40
0.0
 40
0.0
 40
0.0
 40
0.0874326367442684
 40
0.1718185062113928
 40
0.2543725690495883
 40
0.3378630814927583
 40
0.4207999372159507
 40
0.5025407778433321
 40
0.584281618470713
 40
0.6672184741939061
 40
0.7500337241060918
 40
0.8328350648394893
 40
0.9148396827179751
 40
1.0
 40
1.0
 40
1.0
 40
1.0
 10
-0.041714230592163
 20
0.0120356601165361
 30
0.0
 10
-0.0417122215559394
 20
0.0121018025742527
 30
0.0
 10
-0.0417082734924276
 20
0.0122317826218094
 30
0.0
 10
-0.0416680559710433
 20
0.0124205430587581
 30
0.0
 10
-0.0416084298694805
 20
0.0126005597203619
 30
0.0
 10
-0.0415218873251366
 20
0.012768442755471
 30
0.0
 10
-0.0414147139889222
 20
0.0129226793398237
 30
0.0
 10
-0.0412925785601395
 20
0.0130638598254249
 30
0.0
 10
-0.0411514135342269
 20
0.0131860098483084
 30
0.0
 10
-0.0409975191843355
 20
0.0132928167594503
 30
0.0
 10
-0.0408302725049306
 20
0.0133795804043283
 30
0.0
 10
-0.040653091195884
 20
0.0134412313598213
 30
0.0
 10
-0.0404671954262579
 20
0.0134789843320958
 30
0.0
 10
-0.0403408058558304
 20
0.0134833087084426
 30
0.0
 10
-0.0402764180946745
 20
0.0134855117138839
 30
0.0
  0
SPLINE
  5
C8
330
1F
100
AcDbEntity
  8
0
  6
Continuous
 62
     7
370
    25
100
AcDbSpline
210
0.0
220
0.0
230
1.0
 70
     8
 71
     3
 72
    15
 73
    11
 74
     0
 42
0.00000001
 43
0.00000001
 40
0.0
 40
0.0
 40
0.0
 40
0.0
 40
0.1259192724342305
 40
0.2471296052138297
 40
0.3698536923844004
 40
0.4973624715708198
 40
0.6266793582049534
 40
0.750515325400828
 40
0.8717256581804198
 40
1.0
 40
1.0
 40
1.0
 40
1.0
 10
-0.0362570786130591
 20
-0.0205146261603375
 30
0.0
 10
-0.0362264606849343
 20
-0.0205131314991209
 30
0.0
 10
-0.0361663698319324
 20
-0.020510198071781
 30
0.0
 10
-0.0360804766646019
 20
-0.0204820843660294
 30
0.0
 10
-0.0359992931315464
 20
-0.0204416961935372
 30
0.0
 10
-0.0359302031683292
 20
-0.0203798398408714
 30
0.0
 10
-0.0358698740104577
 20
-0.0203095150812019
 30
0.0
 10
-0.035826536074459
 20
-0.0202291284242716
 30
0.0
 10
-0.0357988198893526
 20
-0.0201420637770304
 30
0.0
 10
-0.0357959227759133
 20
-0.0200814340769163
 30
0.0
 10
-0.0357944332041782
 20
-0.0200502608800482
 30
0.0
  0
SPLINE
  5
CC
330
1F
100
AcDbEntity
  8
0
  6
Continuous
 62
     7
370
    25
100
AcDbSpline
210
0.0
220
0.0
230
1.0
 70
     8
 71
     3
 72
    15
 73
    11
 74
     0
 42
0.00000001
 43
0.00000001
 40
0.0
 40
0.0
 40
0.0
 40
0.0
 40
0.1283637121560247
 40
0.2496584936887138
 40
0.3735807389499852
 40
0.501178355095807
 40
0.6287759712416203
 40
0.7526982165028917
 40
0.8739929980355868
 40
1.0
 40
1.0
 40
1.0
 40
1.0
 10
-0.0357944332041782
 20
-0.0159139701426562
 30
0.0
 10
-0.0357959158471146
 20
-0.0158827916271964
 30
0.0
 10
-0.0357987994845224
 20
-0.0158221515827914
 30
0.0
 10
-0.0358266131636285
 20
-0.0157351617725897
 30
0.0
 10
-0.0358693643210008
 20
-0.0156548736249217
 30
0.0
 10
-0.0359307495104096
 20
-0.015585921077436
 30
0.0
 10
-0.0359997017791204
 20
-0.0155245361509741
 30
0.0
 10
-0.0360799907487569
 20
-0.0154817842481123
 30
0.0
 10
-0.0361664288131406
 20
-0.015454148719422
 30
0.0
 10
-0.0362264805935073
 20
-0.0154511386001924
 30
0.0
 10
-0.0362570786130591
 20
-0.0154496048623669
 30
0.0
  0
SPLINE
  5
CE
330
1F
100
AcDbEntity
  8
0
  6
Continuous
 62
     7
370
    25
100
AcDbSpline
210
0.0
220
0.0
230
1.0
 70
     8
 71
     3
 72
    15
 73
    11
 74
     0
 42
0.00000001
 43
0.00000001
 40
0.0
 40
0.0
 40
0.0
 40
0.0
 40
0.1279729566272755
 40
0.2488985013585613
 40
0.3713342438602953
 40
0.4985434365714319
 40
0.6275564885166132
 40
0.7511014986414308
 40
0.8720270433727249
 40
1.0
 40
1.0
 40
1.0
 40
1.0
 10
-0.0345819238612005
 20
-0.0086165557564798
 30
0.0
 10
-0.034550724893978
 20
-0.0086151132561938
 30
0.0
 10
-0.0344900450723167
 20
-0.0086123076934494
 30
0.0
 10
-0.0344036012646705
 20
-0.0085840136948347
 30
0.0
 10
-0.0343224187264934
 20
-0.0085436258647913
 30
0.0
 10
-0.0342533284846249
 20
-0.0084817694162104
 30
0.0
 10
-0.0341929994027184
 20
-0.008411444682689
 30
0.0
 10
-0.034149661447231
 20
-0.0083310580190504
 30
0.0
 10
-0.0341219452671339
 20
-0.0082439933735335
 30
0.0
 10
-0.0341190481530022
 20
-0.0081833636731811
 30
0.0
 10
-0.0341175585809112
 20
-0.0081521904761904
 30
0.0
  0
SPLINE
  5
D2
330
1F
100
AcDbEntity
  8
0
  6
Continuous
 62
     7
370
    25
100
AcDbSpline
210
0.0
220
0.0
230
1.0
 70
     8
 71
     3
 72
    15
 73
    11
 74
     0
 42
0.00000001
 43
0.00000001
 40
0.0
 40
0.0
 40
0.0
 40
0.0
 40
0.1260070019644109
 40
0.2473017834971055
 40
0.3712240287583773
 40
0.4988216449041943
 40
0.6264192610500147
 40
0.7503415063112869
 40
0.8716362878439743
 40
1.0
 40
1.0
 40
1.0
 40
1.0
 10
-0.0341175585809112
 20
-0.0024456571428571
 30
0.0
 10
-0.0341190923187368
 20
-0.0024150591233053
 30
0.0
 10
-0.0341221024379664
 20
-0.0023550073429386
 30
0.0
 10
-0.0341497379666566
 20
-0.002268569278555
 30
0.0
 10
-0.0341924898695185
 20
-0.0021882803089184
 30
0.0
 10
-0.0342538747959803
 20
-0.0021193280402077
 30
0.0
 10
-0.034322827343466
 20
-0.0020579428507988
 30
0.0
 10
-0.034403115491134
 20
-0.0020151916934266
 30
0.0
 10
-0.0344901053013357
 20
-0.0019873780143204
 30
0.0
 10
-0.0345507453457407
 20
-0.0019844943769126
 30
0.0
 10
-0.0345819238612005
 20
-0.0019830117339763
 30
0.0
  0
SPLINE
  5
D4
330
1F
100
AcDbEntity
  8
0
  6
Continuous
 62
     7
370
    25
100
AcDbSpline
210
0.0
220
0.0
230
1.0
 70
     8
 71
     3
 72
    15
 73
    11
 74
     0
 42
0.00000001
 43
0.00000001
 40
0.0
 40
0.0
 40
0.0
 40
0.0
 40
0.1262165210989965
 40
0.2477129864846527
 40
0.3707267796735397
 40
0.498536559760189
 40
0.6281587155651219
 40
0.7522870135153551
 40
0.8737834789010062
 40
1.0
 40
1.0
 40
1.0
 40
1.0
 10
-0.0362570786130591
 20
0.0074350040988547
 30
0.0
 10
-0.0362264606852092
 20
0.00743649875981
 30
0.0
 10
-0.0361663698327468
 20
0.007439432186637
 30
0.0
 10
-0.0360804766614695
 20
0.0074675458961407
 30
0.0
 10
-0.0359992931436686
 20
0.007507934054131
 30
0.0
 10
-0.0359302031208355
 20
0.0075697904634711
 30
0.0
 10
-0.0358698741870496
 20
0.0076401150101124
 30
0.0
 10
-0.0358265354523692
 20
0.0077205024263136
 30
0.0
 10
-0.0357989970423933
 20
0.0078070150469959
 30
0.0
 10
-0.0357959736864635
 20
0.0078670566657848
 30
0.0
 10
-0.0357944332041782
 20
0.0078976495077356
 30
0.0
  0
SPLINE
  5
D6
330
1F
100
AcDbEntity
  8
0
  6
Continuous
 62
     7
370
    25
100
AcDbSpline
210
0.0
220
0.0
230
1.0
 70
     8
 71
     3
 72
    15
 73
    11
 74
     0
 42
0.00000001
 43
0.00000001
 40
0.0
 40
0.0
 40
0.0
 40
0.0
 40
0.1261284996822244
 40
0.2475402353437295
 40
0.3704682406479222
 40
0.499999999999997
 40
0.6295317593520741
 40
0.7524597646562656
 40
0.873871500317773
 40
0.9999999999999999
 40
0.9999999999999999
 40
0.9999999999999999
 40
0.9999999999999999
 10
-0.0407390635035554
 20
0.0078976495077356
 30
0.0
 10
-0.0407375620323425
 20
0.0078670367899799
 30
0.0
 10
-0.0407346152396799
 20
0.0078069561628667
 30
0.0
 10
-0.0407065993024368
 20
0.0077209881922624
 30
0.0
 10
-0.0406656348151743
 20
0.0076396999960104
 30
0.0
 10
-0.0406048316415485
 20
0.0075692359608616
 30
0.0
 10
-0.0405343676063997
 20
0.0075084327872358
 30
0.0
 10
-0.0404530794101477
 20
0.0074674682999733
 30
0.0
 10
-0.0403671114395434
 20
0.0074394523627302
 30
0.0
 10
-0.0403070308124302
 20
0.0074365055700676
 30
0.0
 10
-0.0402764180946745
 20
0.0074350040988547
 30
0.0
  0
SPLINE
  5
D9
330
1F
100
AcDbEntity
  8
0
  6
Continuous
 62
     7
370
    25
100
AcDbSpline
210
0.0
220
0.0
230
1.0
 70
     8
 71
     3
 72
    15
 73
    11
 74
     0
 42
0.00000001
 43
0.00000001
 40
0.0
 40
0.0
 40
0.0
 40
0.0
 40
0.1263046654567408
 40
0.2478859789099572
 40
0.3721009628899252
 40
0.5000000000000019
 40
0.6278990371100686
 40
0.7521140210900364
 40
0.8736953345432567
 40
1.0
 40
1.0
 40
1.0
 40
1.0
 10
-0.0357944332041782
 20
0.0120356601165361
 30
0.0
 10
-0.0357959669417248
 20
0.0120662581358358
 30
0.0
 10
-0.0357989770604068
 20
0.0121263099157078
 30
0.0
 10
-0.0358266125931146
 20
0.0122127479837211
 30
0.0
 10
-0.0358693644803599
 20
0.0122930369392487
 30
0.0
 10
-0.0359307494671402
 20
0.012361989262455
 30
0.0
 10
-0.0359997017903464
 20
0.0124233742492352
 30
0.0
 10
-0.036079990745874
 20
0.0124661261364806
 30
0.0
 10
-0.0361664288138873
 20
0.0124937616691883
 30
0.0
 10
-0.0362264805937594
 20
0.0124967717878704
 30
0.0
 10
-0.0362570786130591
 20
0.0124983055254169
 30
0.0
  0
SPLINE
  5
DA
330
1F
100
AcDbEntity
  8
0
  6
Continuous
 62
     7
370
    25
100
AcDbSpline
210
0.0
220
0.0
230
1.0
 70
     8
 71
     3
 72
    15
 73
    11
 74
     0
 42
0.00000001
 43
0.00000001
 40
0.0
 40
0.0
 40
0.0
 40
0.0
 40
0.1262165210989962
 40
0.2477129864846517
 40
0.3718412844348843
 40
0.5014634402398123
 40
0.6292732203264642
 40
0.7522870135153518
 40
0.8737834789010065
 40
1.0
 40
1.0
 40
1.0
 40
1.0
 10
-0.0402764180946745
 20
0.0124983055254169
 30
0.0
 10
-0.0403070109366253
 20
0.0124967650431317
 30
0.0
 10
-0.0403670525554142
 20
0.0124937416872019
 30
0.0
 10
-0.0404535651760965
 20
0.012466203277226
 30
0.0
 10
-0.0405339525922978
 20
0.0124228645425456
 30
0.0
 10
-0.040604277138939
 20
0.0123625356087597
 30
0.0
 10
-0.0406661335482791
 20
0.0122934455859265
 30
0.0
 10
-0.0407065217062694
 20
0.0122122620681257
 30
0.0
 10
-0.0407346354157731
 20
0.0121263688968483
 30
0.0
 10
-0.0407375688426001
 20
0.012066278044386
 30
0.0
 10
-0.0407390635035554
 20
0.0120356601165361
 30
0.0
  0
SPLINE
  5
DC
330
1F
100
AcDbEntity
  8
0
  6
Continuous
 62
     7
370
    25
100
AcDbSpline
210
0.0
220
0.0
230
1.0
 70
     8
 71
     3
 72
    15
 73
    11
 74
     0
 42
0.00000001
 43
0.00000001
 40
0.0
 40
0.0
 40
0.0
 40
0.0
 40
0.1259192724342309
 40
0.2471296052138291
 40
0.3698536923844025
 40
0.4973624715708207
 40
0.6266793582049547
 40
0.7505153254008319
 40
0.871725658180424
 40
1.0
 40
1.0
 40
1.0
 40
1.0
 10
-0.0362570786130591
 20
0.0153687709061684
 30
0.0
 10
-0.0362264606849343
 20
0.015370265567385
 30
0.0
 10
-0.0361663698319324
 20
0.015373198994725
 30
0.0
 10
-0.0360804766646019
 20
0.0154013127004765
 30
0.0
 10
-0.0359992931315464
 20
0.0154417008729687
 30
0.0
 10
-0.0359302031683292
 20
0.0155035572256346
 30
0.0
 10
-0.0358698740104577
 20
0.015573881985304
 30
0.0
 10
-0.035826536074459
 20
0.0156542686422343
 30
0.0
 10
-0.0357988198893525
 20
0.0157413332894756
 30
0.0
 10
-0.0357959227759132
 20
0.0158019629895896
 30
0.0
 10
-0.0357944332041782
 20
0.0158331361864577
 30
0.0
  0
SPLINE
  5
E0
330
1F
100
AcDbEntity
  8
0
  6
Continuous
 62
     7
370
    25
100
AcDbSpline
210
0.0
220
0.0
230
1.0
 70
     8
 71
     3
 72
    15
 73
    11
 74
     0
 42
0.00000001
 43
0.00000001
 40
0.0
 40
0.0
 40
0.0
 40
0.0
 40
0.1283637121560244
 40
0.2496584936887178
 40
0.3735807389499888
 40
0.5011783550958085
 40
0.6287759712416215
 40
0.7526982165028925
 40
0.8739929980355874
 40
0.9999999999999999
 40
0.9999999999999999
 40
0.9999999999999999
 40
0.9999999999999999
 10
-0.0357944332041782
 20
0.0199694269238497
 30
0.0
 10
-0.0357959158471146
 20
0.0200006054393095
 30
0.0
 10
-0.0357987994845224
 20
0.0200612454837146
 30
0.0
 10
-0.0358266131636285
 20
0.0201482352939162
 30
0.0
 10
-0.0358693643210008
 20
0.0202285234415842
 30
0.0
 10
-0.0359307495104096
 20
0.0202974759890699
 30
0.0
 10
-0.0359997017791204
 20
0.0203588609155318
 30
0.0
 10
-0.0360799907487569
 20
0.0204016128183936
 30
0.0
 10
-0.0361664288131406
 20
0.0204292483470839
 30
0.0
 10
-0.0362264805935073
 20
0.0204322584663135
 30
0.0
 10
-0.0362570786130591
 20
0.020433792204139
 30
0.0
  0
LINE
  5
E1
330
1F
100
AcDbEntity
  8
0
  6
Continuous
 62
     7
370
    25
100
AcDbLine
 10
-0.0388970812
 20
0.0274818252
 30
0.0
 11
-0.0342482688
 21
0.0313928128
 31
0.0
  0
LINE
  5
E2
330
1F
100
AcDbEntity
  8
0
  6
Continuous
 62
     7
370
    25
100
AcDbLine
 10
-0.0342482688
 20
0.0235708377
 30
0.0
 11
-0.0388970812
 21
0.0274818252
 31
0.0
  0
LINE
  5
E3
330
1F
100
AcDbEntity
  8
0
  6
Continuous
 62
     7
370
    25
100
AcDbLine
 10
-0.0417142306
 20
0.0235708377
 30
0.0
 11
-0.0342482688
 21
0.0235708377
 31
0.0
  0
LINE
  5
E4
330
1F
100
AcDbEntity
  8
0
  6
Continuous
 62
     7
370
    25
100
AcDbLine
 10
-0.0417142306
 20
0.0226077097
 30
0.0
 11
-0.0417142306
 21
0.0235708377
 31
0.0
  0
LINE
  5
E5
330
1F
100
AcDbEntity
  8
0
  6
Continuous
 62
     7
370
    25
100
AcDbLine
 10
-0.0331544306
 20
0.0226077097
 30
0.0
 11
-0.0417142306
 21
0.0226077097
 31
0.0
  0
LINE
  5
E6
330
1F
100
AcDbEntity
  8
0
  6
Continuous
 62
     7
370
    25
100
AcDbLine
 10
-0.0331544306
 20
0.023926851
 30
0.0
 11
-0.0331544306
 21
0.0226077097
 31
0.0
  0
LINE
  5
E7
330
1F
100
AcDbEntity
  8
0
  6
Continuous
 62
     7
370
    25
100
AcDbLine
 10
-0.0373870341
 20
0.0274818252
 30
0.0
 11
-0.0331544306
 21
0.023926851
 31
0.0
  0
LINE
  5
E8
330
1F
100
AcDbEntity
  8
0
  6
Continuous
 62
     7
370
    25
100
AcDbLine
 10
-0.0331544306
 20
0.0310367994
 30
0.0
 11
-0.0373870341
 21
0.0274818252
 31
0.0
  0
LINE
  5
E9
330
1F
100
AcDbEntity
  8
0
  6
Continuous
 62
     7
370
    25
100
AcDbLine
 10
-0.0331544306
 20
0.0323559408
 30
0.0
 11
-0.0331544306
 21
0.0310367994
 31
0.0
  0
LINE
  5
EA
330
1F
100
AcDbEntity
  8
0
  6
Continuous
 62
     7
370
    25
100
AcDbLine
 10
-0.0417142306
 20
0.0323559408
 30
0.0
 11
-0.0331544306
 21
0.0323559408
 31
0.0
  0
LINE
  5
EB
330
1F
100
AcDbEntity
  8
0
  6
Continuous
 62
     7
370
    25
100
AcDbLine
 10
-0.0417142306
 20
0.0313928128
 30
0.0
 11
-0.0417142306
 21
0.0323559408
 31
0.0
  0
LINE
  5
EC
330
1F
100
AcDbEntity
  8
0
  6
Continuous
 62
     7
370
    25
100
AcDbLine
 10
-0.0342482688
 20
0.0313928128
 30
0.0
 11
-0.0417142306
 21
0.0313928128
 31
0.0
  0
LINE
  5
ED
330
1F
100
AcDbEntity
  8
0
  6
Continuous
 62
     7
370
    25
100
AcDbLine
 10
-0.0407390635
 20
0.0199694269
 30
0.0
 11
-0.0407390635
 21
0.0143815647
 31
0.0
  0
LINE
  5
EE
330
1F
100
AcDbEntity
  8
0
  6
Continuous
 62
     7
370
    25
100
AcDbLine
 10
-0.0387543319
 20
0.0204337922
 30
0.0
 11
-0.0402764181
 21
0.0204337922
 31
0.0
  0
LINE
  5
EF
330
1F
100
AcDbEntity
  8
0
  6
Continuous
 62
     7
370
    25
100
AcDbLine
 10
-0.0387543319
 20
0.0143815647
 30
0.0
 11
-0.0387543319
 21
0.0204337922
 31
0.0
  0
LINE
  5
F0
330
1F
100
AcDbEntity
  8
0
  6
Continuous
 62
     7
370
    25
100
AcDbLine
 10
-0.0362570786
 20
0.0143815647
 30
0.0
 11
-0.0387543319
 21
0.0143815647
 31
0.0
  0
LINE
  5
F1
330
1F
100
AcDbEntity
  8
0
  6
Continuous
 62
     7
370
    25
100
AcDbLine
 10
-0.0348192661
 20
0.0199694269
 30
0.0
 11
-0.0348192661
 21
0.0158331362
 31
0.0
  0
LINE
  5
F2
330
1F
100
AcDbEntity
  8
0
  6
Continuous
 62
     7
370
    25
100
AcDbLine
 10
-0.0402764181
 20
0.0214072394
 30
0.0
 11
-0.0362570786
 21
0.0214072394
 31
0.0
  0
LINE
  5
F3
330
1F
100
AcDbEntity
  8
0
  6
Continuous
 62
     7
370
    25
100
AcDbLine
 10
-0.0417142306
 20
0.0143815647
 30
0.0
 11
-0.0417142306
 21
0.0199694269
 31
0.0
  0
LINE
  5
F4
330
1F
100
AcDbEntity
  8
0
  6
Continuous
 62
     7
370
    25
100
AcDbLine
 10
-0.0407390635
 20
0.0143815647
 30
0.0
 11
-0.0417142306
 21
0.0143815647
 31
0.0
  0
LINE
  5
F5
330
1F
100
AcDbEntity
  8
0
  6
Continuous
 62
     7
370
    25
100
AcDbLine
 10
-0.0377086501
 20
0.0051320963
 30
0.0
 11
-0.0377086501
 21
0.000495323
 31
0.0
  0
LINE
  5
F6
330
1F
100
AcDbEntity
  8
0
  6
Continuous
 62
     7
370
    25
100
AcDbLine
 10
-0.0386820973
 20
0.0051320963
 30
0.0
 11
-0.0377086501
 21
0.0051320963
 31
0.0
  0
LINE
  5
F7
330
1F
100
AcDbEntity
  8
0
  6
Continuous
 62
     7
370
    25
100
AcDbLine
 10
-0.0386820973
 20
0.000495323
 30
0.0
 11
-0.0386820973
 21
0.0051320963
 31
0.0
  0
LINE
  5
F8
330
1F
100
AcDbEntity
  8
0
  6
Continuous
 62
     7
370
    25
100
AcDbLine
 10
-0.0377086501
 20
0.000495323
 30
0.0
 11
-0.0386820973
 21
0.000495323
 31
0.0
  0
LINE
  5
F9
330
1F
100
AcDbEntity
  8
0
  6
Continuous
 62
     7
370
    25
100
AcDbLine
 10
-0.0385875044
 20
-0.0086165558
 30
0.0
 11
-0.0385875044
 21
-0.0019830117
 31
0.0
  0
LINE
  5
FA
330
1F
100
AcDbEntity
  8
0
  6
Continuous
 62
     7
370
    25
100
AcDbLine
 10
-0.0417142306
 20
-0.0086165558
 30
0.0
 11
-0.0385875044
 21
-0.0086165558
 31
0.0
  0
LINE
  5
FB
330
1F
100
AcDbEntity
  8
0
  6
Continuous
 62
     7
370
    25
100
AcDbLine
 10
-0.0417142306
 20
-0.0095796837
 30
0.0
 11
-0.0417142306
 21
-0.0086165558
 31
0.0
  0
LINE
  5
FC
330
1F
100
AcDbEntity
  8
0
  6
Continuous
 62
     7
370
    25
100
AcDbLine
 10
-0.0345819239
 20
-0.0095796837
 30
0.0
 11
-0.0417142306
 21
-0.0095796837
 31
0.0
  0
LINE
  5
FD
330
1F
100
AcDbEntity
  8
0
  6
Continuous
 62
     7
370
    25
100
AcDbLine
 10
-0.0331544306
 20
-0.0024456571
 30
0.0
 11
-0.0331544306
 21
-0.0081521905
 31
0.0
  0
LINE
  5
FE
330
1F
100
AcDbEntity
  8
0
  6
Continuous
 62
     7
370
    25
100
AcDbLine
 10
-0.0417142306
 20
-0.0010198837
 30
0.0
 11
-0.0345819239
 21
-0.0010198837
 31
0.0
  0
LINE
  5
FF
330
1F
100
AcDbEntity
  8
0
  6
Continuous
 62
     7
370
    25
100
AcDbLine
 10
-0.0417142306
 20
-0.0019830117
 30
0.0
 11
-0.0417142306
 21
-0.0010198837
 31
0.0
  0
LINE
  5
100
330
1F
100
AcDbEntity
  8
0
  6
Continuous
 62
     7
370
    25
100
AcDbLine
 10
-0.0385875044
 20
-0.0019830117
 30
0.0
 11
-0.0417142306
 21
-0.0019830117
 31
0.0
  0
LINE
  5
101
330
1F
100
AcDbEntity
  8
0
  6
Continuous
 62
     7
370
    25
100
AcDbLine
 10
-0.0357944332
 20
-0.0280562623
 30
0.0
 11
-0.0357944332
 21
-0.024181392
 31
0.0
  0
LINE
  5
102
330
1F
100
AcDbEntity
  8
0
  6
Continuous
 62
     7
370
    25
100
AcDbLine
 10
-0.0348192661
 20
-0.0280562623
 30
0.0
 11
-0.0357944332
 21
-0.0280562623
 31
0.0
  0
LINE
  5
103
330
1F
100
AcDbEntity
  8
0
  6
Continuous
 62
     7
370
    25
100
AcDbLine
 10
-0.0348192661
 20
-0.024181392
 30
0.0
 11
-0.0348192661
 21
-0.0280562623
 31
0.0
  0
LINE
  5
104
330
1F
100
AcDbEntity
  8
0
  6
Continuous
 62
     7
370
    25
100
AcDbLine
 10
-0.0417142306
 20
-0.0227418596
 30
0.0
 11
-0.0362570786
 21
-0.0227418596
 31
0.0
  0
LINE
  5
105
330
1F
100
AcDbEntity
  8
0
  6
Continuous
 62
     7
370
    25
100
AcDbLine
 10
-0.0417142306
 20
-0.0237170267
 30
0.0
 11
-0.0417142306
 21
-0.0227418596
 31
0.0
  0
LINE
  5
106
330
1F
100
AcDbEntity
  8
0
  6
Continuous
 62
     7
370
    25
100
AcDbLine
 10
-0.0362570786
 20
-0.0237170267
 30
0.0
 11
-0.0417142306
 21
-0.0237170267
 31
0.0
  0
LINE
  5
107
330
1F
100
AcDbEntity
  8
0
  6
Continuous
 62
     7
370
    25
100
AcDbLine
 10
-0.0407390635
 20
-0.0302473785
 30
0.0
 11
-0.0407390635
 21
-0.0327669901
 31
0.0
  0
LINE
  5
108
330
1F
100
AcDbEntity
  8
0
  6
Continuous
 62
     7
370
    25
100
AcDbLine
 10
-0.0357944332
 20
-0.0297830132
 30
0.0
 11
-0.0402764181
 21
-0.0297830132
 31
0.0
  0
LINE
  5
109
330
1F
100
AcDbEntity
  8
0
  6
Continuous
 62
     7
370
    25
100
AcDbLine
 10
-0.0357944332
 20
-0.0327669901
 30
0.0
 11
-0.0357944332
 21
-0.0297830132
 31
0.0
  0
LINE
  5
10A
330
1F
100
AcDbEntity
  8
0
  6
Continuous
 62
     7
370
    25
100
AcDbLine
 10
-0.0348192661
 20
-0.0327669901
 30
0.0
 11
-0.0357944332
 21
-0.0327669901
 31
0.0
  0
LINE
  5
10B
330
1F
100
AcDbEntity
  8
0
  6
Continuous
 62
     7
370
    25
100
AcDbLine
 10
-0.0348192661
 20
-0.0297830132
 30
0.0
 11
-0.0348192661
 21
-0.0327669901
 31
0.0
  0
LINE
  5
10C
330
1F
100
AcDbEntity
  8
0
  6
Continuous
 62
     7
370
    25
100
AcDbLine
 10
-0.032561075
 20
-0.0297830132
 30
0.0
 11
-0.0348192661
 21
-0.0297830132
 31
0.0
  0
LINE
  5
10D
330
1F
100
AcDbEntity
  8
0
  6
Continuous
 62
     7
370
    25
100
AcDbLine
 10
-0.032561075
 20
-0.0288078461
 30
0.0
 11
-0.032561075
 21
-0.0297830132
 31
0.0
  0
LINE
  5
10E
330
1F
100
AcDbEntity
  8
0
  6
Continuous
 62
     7
370
    25
100
AcDbLine
 10
-0.0402764181
 20
-0.0288078461
 30
0.0
 11
-0.032561075
 21
-0.0288078461
 31
0.0
  0
LINE
  5
10F
330
1F
100
AcDbEntity
  8
0
  6
Continuous
 62
     7
370
    25
100
AcDbLine
 10
-0.0417142306
 20
-0.0327669901
 30
0.0
 11
-0.0417142306
 21
-0.0302473785
 31
0.0
  0
LINE
  5
110
330
1F
100
AcDbEntity
  8
0
  6
Continuous
 62
     7
370
    25
100
AcDbLine
 10
-0.0407390635
 20
-0.0327669901
 30
0.0
 11
-0.0417142306
 21
-0.0327669901
 31
0.0
  0
LINE
  5
111
330
1F
100
AcDbEntity
  8
0
  6
Continuous
 62
     7
370
    25
100
AcDbLine
 10
0.0508
 20
-0.0281
 30
0.0
 11
0.0508
 21
0.0281
 31
0.0
  0
LINE
  5
112
330
1F
100
AcDbEntity
  8
0
  6
Continuous
 62
     7
370
    25
100
AcDbLine
 10
-0.0408
 20
-0.0381
 30
0.0
 11
0.0408
 21
-0.0381
 31
0.0
  0
LINE
  5
113
330
1F
100
AcDbEntity
  8
0
  6
Continuous
 62
     7
370
    25
100
AcDbLine
 10
-0.0508
 20
0.0281
 30
0.0
 11
-0.0508
 21
-0.0281
 31
0.0
  0
LINE
  5
114
330
1F
100
AcDbEntity
  8
0
  6
Continuous
 62
     7
370
    25
100
AcDbLine
 10
0.0408
 20
0.0381
 30
0.0
 11
-0.0408
 21
0.0381
 31
0.0
  0
LINE
  5
115
330
1F
100
AcDbEntity
  8
0
  6
Continuous
 62
     7
370
    25
100
AcDbLine
 10
-0.0407390635
 20
-0.0159139701
 30
0.0
 11
-0.0407390635
 21
-0.0215018323
 31
0.0
  0
LINE
  5
116
330
1F
100
AcDbEntity
  8
0
  6
Continuous
 62
     7
370
    25
100
AcDbLine
 10
-0.0387543319
 20
-0.0154496049
 30
0.0
 11
-0.0402764181
 21
-0.0154496049
 31
0.0
  0
LINE
  5
117
330
1F
100
AcDbEntity
  8
0
  6
Continuous
 62
     7
370
    25
100
AcDbLine
 10
-0.0387543319
 20
-0.0215018323
 30
0.0
 11
-0.0387543319
 21
-0.0154496049
 31
0.0
  0
LINE
  5
118
330
1F
100
AcDbEntity
  8
0
  6
Continuous
 62
     7
370
    25
100
AcDbLine
 10
-0.0362570786
 20
-0.0215018323
 30
0.0
 11
-0.0387543319
 21
-0.0215018323
 31
0.0
  0
LINE
  5
119
330
1F
100
AcDbEntity
  8
0
  6
Continuous
 62
     7
370
    25
100
AcDbLine
 10
-0.0348192661
 20
-0.0159139701
 30
0.0
 11
-0.0348192661
 21
-0.0200502609
 31
0.0
  0
LINE
  5
11A
330
1F
100
AcDbEntity
  8
0
  6
Continuous
 62
     7
370
    25
100
AcDbLine
 10
-0.0402764181
 20
-0.0144761576
 30
0.0
 11
-0.0362570786
 21
-0.0144761576
 31
0.0
  0
LINE
  5
11B
330
1F
100
AcDbEntity
  8
0
  6
Continuous
 62
     7
370
    25
100
AcDbLine
 10
-0.0417142306
 20
-0.0215018323
 30
0.0
 11
-0.0417142306
 21
-0.0159139701
 31
0.0
  0
LINE
  5
11C
330
1F
100
AcDbEntity
  8
0
  6
Continuous
 62
     7
370
    25
100
AcDbLine
 10
-0.0407390635
 20
-0.0215018323
 30
0.0
 11
-0.0417142306
 21
-0.0215018323
 31
0.0
  0
LINE
  5
11D
330
1F
100
AcDbEntity
  8
0
  6
Continuous
 62
     7
370
    25
100
AcDbLine
 10
-0.0407390635
 20
-0.0122936408
 30
0.0
 11
-0.0407390635
 21
-0.0134579938
 31
0.0
  0
LINE
  5
11E
330
1F
100
AcDbEntity
  8
0
  6
Continuous
 62
     7
370
    25
100
AcDbLine
 10
-0.032561075
 20
-0.0118292755
 30
0.0
 11
-0.0402764181
 21
-0.0118292755
 31
0.0
  0
LINE
  5
11F
330
1F
100
AcDbEntity
  8
0
  6
Continuous
 62
     7
370
    25
100
AcDbLine
 10
-0.032561075
 20
-0.0108541085
 30
0.0
 11
-0.032561075
 21
-0.0118292755
 31
0.0
  0
LINE
  5
120
330
1F
100
AcDbEntity
  8
0
  6
Continuous
 62
     7
370
    25
100
AcDbLine
 10
-0.0402764181
 20
-0.0108541085
 30
0.0
 11
-0.032561075
 21
-0.0108541085
 31
0.0
  0
LINE
  5
121
330
1F
100
AcDbEntity
  8
0
  6
Continuous
 62
     7
370
    25
100
AcDbLine
 10
-0.0417142306
 20
-0.0134579938
 30
0.0
 11
-0.0417142306
 21
-0.0122936408
 31
0.0
  0
LINE
  5
122
330
1F
100
AcDbEntity
  8
0
  6
Continuous
 62
     7
370
    25
100
AcDbLine
 10
-0.0407390635
 20
-0.0134579938
 30
0.0
 11
-0.0417142306
 21
-0.0134579938
 31
0.0
  0
LINE
  5
123
330
1F
100
AcDbEntity
  8
0
  6
Continuous
 62
     7
370
    25
100
AcDbLine
 10
-0.032561075
 20
0.0074350041
 30
0.0
 11
-0.032561075
 21
0.006459837
 31
0.0
  0
LINE
  5
124
330
1F
100
AcDbEntity
  8
0
  6
Continuous
 62
     7
370
    25
100
AcDbLine
 10
-0.0348192661
 20
0.0074350041
 30
0.0
 11
-0.032561075
 21
0.0074350041
 31
0.0
  0
LINE
  5
125
330
1F
100
AcDbEntity
  8
0
  6
Continuous
 62
     7
370
    25
100
AcDbLine
 10
-0.0348192661
 20
0.0120356601
 30
0.0
 11
-0.0348192661
 21
0.0074350041
 31
0.0
  0
LINE
  5
126
330
1F
100
AcDbEntity
  8
0
  6
Continuous
 62
     7
370
    25
100
AcDbLine
 10
-0.0402764181
 20
0.0134855117
 30
0.0
 11
-0.0362570786
 21
0.0134855117
 31
0.0
  0
LINE
  5
127
330
1F
100
AcDbEntity
  8
0
  6
Continuous
 62
     7
370
    25
100
AcDbLine
 10
-0.0417142306
 20
0.006459837
 30
0.0
 11
-0.0417142306
 21
0.0120356601
 31
0.0
  0
LINE
  5
128
330
1F
100
AcDbEntity
  8
0
  6
Continuous
 62
     7
370
    25
100
AcDbLine
 10
-0.032561075
 20
0.006459837
 30
0.0
 11
-0.0417142306
 21
0.006459837
 31
0.0
  0
LINE
  5
129
330
1F
100
AcDbEntity
  8
0
  6
Continuous
 62
     7
370
    25
100
AcDbLine
 10
-0.0357944332
 20
-0.0200502609
 30
0.0
 11
-0.0357944332
 21
-0.0159139701
 31
0.0
  0
LINE
  5
12A
330
1F
100
AcDbEntity
  8
0
  6
Continuous
 62
     7
370
    25
100
AcDbLine
 10
-0.0377791648
 20
-0.0205146262
 30
0.0
 11
-0.0362570786
 21
-0.0205146262
 31
0.0
  0
LINE
  5
12B
330
1F
100
AcDbEntity
  8
0
  6
Continuous
 62
     7
370
    25
100
AcDbLine
 10
-0.0362570786
 20
-0.0154496049
 30
0.0
 11
-0.0377791648
 21
-0.0154496049
 31
0.0
  0
LINE
  5
12C
330
1F
100
AcDbEntity
  8
0
  6
Continuous
 62
     7
370
    25
100
AcDbLine
 10
-0.0377791648
 20
-0.0154496049
 30
0.0
 11
-0.0377791648
 21
-0.0205146262
 31
0.0
  0
LINE
  5
12D
330
1F
100
AcDbEntity
  8
0
  6
Continuous
 62
     7
370
    25
100
AcDbLine
 10
-0.0341175586
 20
-0.0081521905
 30
0.0
 11
-0.0341175586
 21
-0.0024456571
 31
0.0
  0
LINE
  5
12E
330
1F
100
AcDbEntity
  8
0
  6
Continuous
 62
     7
370
    25
100
AcDbLine
 10
-0.0376243764
 20
-0.0086165558
 30
0.0
 11
-0.0345819239
 21
-0.0086165558
 31
0.0
  0
LINE
  5
12F
330
1F
100
AcDbEntity
  8
0
  6
Continuous
 62
     7
370
    25
100
AcDbLine
 10
-0.0376243764
 20
-0.0019830117
 30
0.0
 11
-0.0376243764
 21
-0.0086165558
 31
0.0
  0
LINE
  5
130
330
1F
100
AcDbEntity
  8
0
  6
Continuous
 62
     7
370
    25
100
AcDbLine
 10
-0.0345819239
 20
-0.0019830117
 30
0.0
 11
-0.0376243764
 21
-0.0019830117
 31
0.0
  0
LINE
  5
131
330
1F
100
AcDbEntity
  8
0
  6
Continuous
 62
     7
370
    25
100
AcDbLine
 10
-0.0357944332
 20
0.0078976495
 30
0.0
 11
-0.0357944332
 21
0.0120356601
 31
0.0
  0
LINE
  5
132
330
1F
100
AcDbEntity
  8
0
  6
Continuous
 62
     7
370
    25
100
AcDbLine
 10
-0.0402764181
 20
0.0074350041
 30
0.0
 11
-0.0362570786
 21
0.0074350041
 31
0.0
  0
LINE
  5
133
330
1F
100
AcDbEntity
  8
0
  6
Continuous
 62
     7
370
    25
100
AcDbLine
 10
-0.0407390635
 20
0.0120356601
 30
0.0
 11
-0.0407390635
 21
0.0078976495
 31
0.0
  0
LINE
  5
134
330
1F
100
AcDbEntity
  8
0
  6
Continuous
 62
     7
370
    25
100
AcDbLine
 10
-0.0362570786
 20
0.0124983055
 30
0.0
 11
-0.0402764181
 21
0.0124983055
 31
0.0
  0
LINE
  5
135
330
1F
100
AcDbEntity
  8
0
  6
Continuous
 62
     7
370
    25
100
AcDbLine
 10
-0.0357944332
 20
0.0158331362
 30
0.0
 11
-0.0357944332
 21
0.0199694269
 31
0.0
  0
LINE
  5
136
330
1F
100
AcDbEntity
  8
0
  6
Continuous
 62
     7
370
    25
100
AcDbLine
 10
-0.0377791648
 20
0.0153687709
 30
0.0
 11
-0.0362570786
 21
0.0153687709
 31
0.0
  0
LINE
  5
137
330
1F
100
AcDbEntity
  8
0
  6
Continuous
 62
     7
370
    25
100
AcDbLine
 10
-0.0362570786
 20
0.0204337922
 30
0.0
 11
-0.0377791648
 21
0.0204337922
 31
0.0
  0
LINE
  5
138
330
1F
100
AcDbEntity
  8
0
  6
Continuous
 62
     7
370
    25
100
AcDbLine
 10
-0.0377791648
 20
0.0204337922
 30
0.0
 11
-0.0377791648
 21
0.0153687709
 31
0.0
  0
ARC
  5
139
330
1F
100
AcDbEntity
  8
0
  6
Continuous
 62
     7
370
    25
100
AcDbCircle
 10
0.0408
 20
0.0281
 30
0.0
 40
0.01
100
AcDbArc
 50
0.0
 51
90.0
  0
ARC
  5
13A
330
1F
100
AcDbEntity
  8
0
  6
Continuous
 62
     7
370
    25
100
AcDbCircle
 10
0.0408
 20
-0.0281
 30
0.0
 40
0.01
100
AcDbArc
 50
270.0
 51
0.0
  0
ARC
  5
13B
330
1F
100
AcDbEntity
  8
0
  6
Continuous
 62
     7
370
    25
100
AcDbCircle
 10
-0.0408
 20
-0.0281
 30
0.0
 40
0.01
100
AcDbArc
 50
180.0
 51
270.0
  0
ARC
  5
13C
330
1F
100
AcDbEntity
  8
0
  6
Continuous
 62
     7
370
    25
100
AcDbCircle
 10
-0.0408
 20
0.0281
 30
0.0
 40
0.01
100
AcDbArc
 50
90.0
 51
180.0
  0
ENDSEC
  0
SECTION
  2
OBJECTS
  0
DICTIONARY
  5
C
330
0
100
AcDbDictionary
281
     1
  3
ACAD_GROUP
350
D
  3
ACAD_LAYOUT
350
1A
  3
ACAD_MLINESTYLE
350
17
  3
ACAD_PLOTSETTINGS
350
19
  3
ACAD_PLOTSTYLENAME
350
E
  3
ACAD_SCALELIST
350
47
  3
DWGPROPS
350
13D
  0
DICTIONARY
  5
D
102
{ACAD_REACTORS
330
C
102
}
330
C
100
AcDbDictionary
281
     1
  0
DICTIONARY
  5
1A
102
{ACAD_REACTORS
330
C
102
}
330
C
100
AcDbDictionary
281
     1
  3
Layout1
350
1E
  3
Layout2
350
26
  3
Model
350
22
  0
DICTIONARY
  5
17
102
{ACAD_REACTORS
330
C
102
}
330
C
100
AcDbDictionary
281
     1
  3
Standard
350
18
  0
DICTIONARY
  5
19
102
{ACAD_REACTORS
330
C
102
}
330
C
100
AcDbDictionary
281
     1
  0
ACDBDICTIONARYWDFLT
  5
E
102
{ACAD_REACTORS
330
C
102
}
330
C
100
AcDbDictionary
281
     1
  3
Normal
350
F
100
AcDbDictionaryWithDefault
340
F
  0
DICTIONARY
  5
47
102
{ACAD_REACTORS
330
C
102
}
330
C
100
AcDbDictionary
281
     1
  3
A0
350
48
  3
A1
350
49
  3
A2
350
4A
  3
A3
350
4B
  3
A4
350
4C
  3
A5
350
4D
  3
A6
350
4E
  3
A7
350
4F
  3
A8
350
50
  3
A9
350
51
  3
B0
350
52
  3
B1
350
53
  3
B2
350
54
  3
B3
350
55
  3
B4
350
56
  3
B5
350
57
  3
B6
350
58
  0
XRECORD
  5
13D
102
{ACAD_REACTORS
330
C
102
}
330
C
100
AcDbXrecord
280
     1
  1
DWGPROPS COOKIE
  2

  3

  4

  6

  7

  8
raeda
  9

300
=
301
=
302
=
303
=
304
=
305
=
306
=
307
=
308
=
309
=
 40
0.0
 41
2460424.030029954
 42
2460424.030079086
  1

 90
        0
  0
LAYOUT
  5
1E
102
{ACAD_REACTORS
330
1A
102
}
330
1A
100
AcDbPlotSettings
  1

  2
none_device
  4

  6

 40
0.0
 41
0.0
 42
0.0
 43
0.0
 44
0.0
 45
0.0
 46
0.0
 47
0.0
 48
0.0
 49
0.0
140
0.0
141
0.0
142
1.0
143
1.0
 70
   688
 72
     1
 73
     0
 74
     5
  7

 75
    16
147
1.0
148
0.0
149
0.0
100
AcDbLayout
  1
Layout1
 70
     1
 71
     1
 10
0.0
 20
0.0
 11
420.0
 21
297.0
 12
0.0
 22
0.0
 32
0.0
 14
1.0000000000E+20
 24
1.0000000000E+20
 34
1.0000000000E+20
 15
-1.0000000000E+20
 25
-1.0000000000E+20
 35
-1.0000000000E+20
146
0.0
 13
0.0
 23
0.0
 33
0.0
 16
1.0
 26
0.0
 36
0.0
 17
0.0
 27
1.0
 37
0.0
 76
     0
330
1B
  0
LAYOUT
  5
26
102
{ACAD_REACTORS
330
1A
102
}
330
1A
100
AcDbPlotSettings
  1

  2
none_device
  4

  6

 40
0.0
 41
0.0
 42
0.0
 43
0.0
 44
0.0
 45
0.0
 46
0.0
 47
0.0
 48
0.0
 49
0.0
140
0.0
141
0.0
142
1.0
143
1.0
 70
   688
 72
     1
 73
     0
 74
     5
  7

 75
    16
147
1.0
148
0.0
149
0.0
100
AcDbLayout
  1
Layout2
 70
     1
 71
     2
 10
0.0
 20
0.0
 11
0.0
 21
0.0
 12
0.0
 22
0.0
 32
0.0
 14
0.0
 24
0.0
 34
0.0
 15
0.0
 25
0.0
 35
0.0
146
0.0
 13
0.0
 23
0.0
 33
0.0
 16
1.0
 26
0.0
 36
0.0
 17
0.0
 27
1.0
 37
0.0
 76
     0
330
23
  0
LAYOUT
  5
22
102
{ACAD_REACTORS
330
1A
102
}
330
1A
100
AcDbPlotSettings
  1

  2
none_device
  4
ANSI_A_(11.00_x_8.50_Inches)
  6

 40
6.35
 41
19.05
 42
6.35000508
 43
19.05000254
 44
279.4
 45
215.9
 46
133.34999746
 47
88.89999873
 48
0.0
 49
0.0
140
0.0
141
0.0
142
107.1850393701
143
1.0
 70
  1696
 72
     0
 73
     0
 74
     0
  7

 75
     0
147
0.0179189148
148
-1300.4909072572
149
0.0
100
AcDbLayout
  1
Model
 70
     1
 71
     0
 10
0.0
 20
0.0
 11
420.0
 21
297.0
 12
0.0
 22
0.0
 32
0.0
 14
-0.0508
 24
-0.0381
 34
0.0
 15
0.0508
 25
0.0381
 35
0.0
146
0.0
 13
0.0
 23
0.0
 33
0.0
 16
1.0
 26
0.0
 36
0.0
 17
0.0
 27
1.0
 37
0.0
 76
     0
330
1F
331
29
  0
MLINESTYLE
  5
18
102
{ACAD_REACTORS
330
17
102
}
330
17
100
AcDbMlineStyle
  2
Standard
 70
     0
  3

 62
   256
 51
90.0
 52
90.0
 71
     2
 49
0.5
 62
   256
  6
BYLAYER
 49
-0.5
 62
   256
  6
BYLAYER
  0
ACDBPLACEHOLDER
  5
F
102
{ACAD_REACTORS
330
E
102
}
330
E
  0
SCALE
  5
48
102
{ACAD_REACTORS
330
47
102
}
330
47
100
AcDbScale
 70
     0
300
1:1
140
1.0
141
1.0
290
     1
  0
SCALE
  5
49
102
{ACAD_REACTORS
330
47
102
}
330
47
100
AcDbScale
 70
     0
300
1:2
140
1.0
141
2.0
290
     0
  0
SCALE
  5
4A
102
{ACAD_REACTORS
330
47
102
}
330
47
100
AcDbScale
 70
     0
300
1:4
140
1.0
141
4.0
290
     0
  0
SCALE
  5
4B
102
{ACAD_REACTORS
330
47
102
}
330
47
100
AcDbScale
 70
     0
300
1:5
140
1.0
141
5.0
290
     0
  0
SCALE
  5
4C
102
{ACAD_REACTORS
330
47
102
}
330
47
100
AcDbScale
 70
     0
300
1:8
140
1.0
141
8.0
290
     0
  0
SCALE
  5
4D
102
{ACAD_REACTORS
330
47
102
}
330
47
100
AcDbScale
 70
     0
300
1:10
140
1.0
141
10.0
290
     0
  0
SCALE
  5
4E
102
{ACAD_REACTORS
330
47
102
}
330
47
100
AcDbScale
 70
     0
300
1:16
140
1.0
141
16.0
290
     0
  0
SCALE
  5
4F
102
{ACAD_REACTORS
330
47
102
}
330
47
100
AcDbScale
 70
     0
300
1:20
140
1.0
141
20.0
290
     0
  0
SCALE
  5
50
102
{ACAD_REACTORS
330
47
102
}
330
47
100
AcDbScale
 70
     0
300
1:30
140
1.0
141
30.0
290
     0
  0
SCALE
  5
51
102
{ACAD_REACTORS
330
47
102
}
330
47
100
AcDbScale
 70
     0
300
1:40
140
1.0
141
40.0
290
     0
  0
SCALE
  5
52
102
{ACAD_REACTORS
330
47
102
}
330
47
100
AcDbScale
 70
     0
300
1:50
140
1.0
141
50.0
290
     0
  0
SCALE
  5
53
102
{ACAD_REACTORS
330
47
102
}
330
47
100
AcDbScale
 70
     0
300
1:100
140
1.0
141
100.0
290
     0
  0
SCALE
  5
54
102
{ACAD_REACTORS
330
47
102
}
330
47
100
AcDbScale
 70
     0
300
2:1
140
2.0
141
1.0
290
     0
  0
SCALE
  5
55
102
{ACAD_REACTORS
330
47
102
}
330
47
100
AcDbScale
 70
     0
300
4:1
140
4.0
141
1.0
290
     0
  0
SCALE
  5
56
102
{ACAD_REACTORS
330
47
102
}
330
47
100
AcDbScale
 70
     0
300
8:1
140
8.0
141
1.0
290
     0
  0
SCALE
  5
57
102
{ACAD_REACTORS
330
47
102
}
330
47
100
AcDbScale
 70
     0
300
10:1
140
10.0
141
1.0
290
     0
  0
SCALE
  5
58
102
{ACAD_REACTORS
330
47
102
}
330
47
100
AcDbScale
 70
     0
300
100:1
140
100.0
141
1.0
290
     0
  0
ENDSEC
  0
EOF
